
<!-- Generator: visioncortex VTracer 0.6.4 -->
<svg version="1.1" xmlns="http://www.w3.org/2000/svg" viewBox="0 0 1029 665" preserveAspectRatio="xMidYMid meet">
<path d="M0 0 C339.57 0 679.14 0 1029 0 C1029 219.45 1029 438.9 1029 665 C689.43 665 349.86 665 0 665 C0 445.55 0 226.1 0 0 Z " fill="#FDFEFE" transform="translate(0,0)"/>
<path d="M0 0 C2.13 0.049 4.261 0.037 6.391 -0.008 C7.658 -0.025 8.925 -0.041 10.23 -0.059 C12.895 -0.1 15.558 -0.155 18.223 -0.215 C25.158 -0.292 29.812 -0.003 36 3 C39.317 3.561 42.645 3.78 46 4 C54.968 4.589 60.883 6.842 68.875 11 C72.558 12.901 75.841 14.281 79.875 15.188 C82.826 16.088 83.8 16.717 85.605 19.273 C86.6 21.178 87.552 23.106 88.465 25.051 C90.046 28.088 91.829 30.225 94.125 32.75 C98.442 37.887 99.687 43.118 101.121 49.504 C101.89 52.564 102.772 54.842 104.312 57.562 C106.304 61.618 105.819 62.69 105 67 C104.671 75.452 105.015 83.795 105.977 92.195 C106 95 106 95 105.008 97.331 C103.892 100.286 103.807 102.359 103.894 105.503 C104.066 115.682 103.688 125.846 103.365 136.019 C103.288 138.557 103.219 141.095 103.156 143.633 C103.065 147.325 102.949 151.016 102.828 154.707 C102.805 155.836 102.782 156.966 102.758 158.129 C102.514 164.66 101.657 168.582 98 174 C97.839 176.584 97.839 176.584 98.438 179.125 C99.34 186.118 98.26 192.541 97.117 199.438 C95.861 207.136 95.273 213.536 98 221 C99.584 226.561 101.032 232.032 101.438 237.812 C101.873 243.636 103.549 249.096 105.16 254.68 C106 258 106 258 106 262 C109.461 260.062 112.677 258.251 115.812 255.812 C119.554 253.685 122.195 253.592 126.414 253.352 C129.216 252.971 131.169 252.138 133.688 250.875 C138.786 248.393 142.273 249.24 147.621 250.73 C150 252 150 252 150.926 254.355 C151.319 257.235 151.695 260.11 152 263 C152.186 264.237 152.371 265.475 152.562 266.75 C151.703 271.714 148.971 274.068 145 277 C142.605 278.283 140.169 279.412 137.699 280.543 C133.473 282.824 129.984 285.899 126.348 289.012 C123.163 291.709 120.887 293.156 116.812 293.812 C109.713 295.328 104.981 299.203 99.416 303.722 C93.718 308.308 88.884 311.15 81.727 313.133 C78.321 314.216 75.697 315.868 72.816 317.949 C66.892 321.376 58.037 320.755 51.535 319.539 C43.821 317.234 36.418 312.824 32 306 C30.742 302.453 29.837 298.839 28.938 295.188 C26.952 287.24 26.952 287.24 24.328 279.488 C23.119 276.312 22.687 274.338 23 271 C21.851 271.954 20.706 272.914 19.562 273.875 C18.924 274.409 18.286 274.942 17.629 275.492 C15.892 276.922 15.892 276.922 15 279 C13.542 279.595 12.057 280.126 10.562 280.625 C5.331 282.611 1.541 285.466 -2.676 289.098 C-6.093 291.895 -9.237 293.75 -13.438 295.125 C-16.89 296.5 -17.955 298.303 -19.75 301.5 C-21.442 304.272 -22.368 305.721 -25.363 307.043 C-27.215 307.485 -29.077 307.888 -30.945 308.258 C-34.412 309.1 -37.251 310.465 -40.438 312.062 C-45.857 314.685 -50.774 315.95 -56.734 316.676 C-58.964 316.764 -58.964 316.764 -60 318 C-63.677 318.123 -66.97 318.226 -70.562 317.438 C-73.18 316.815 -73.18 316.815 -76.5 317.688 C-81.005 318.09 -81.589 316.761 -85 314 C-87.065 313.718 -87.065 313.718 -89.312 313.688 C-95.165 313.289 -98.005 309.978 -102 306 C-103.052 305.112 -104.113 304.236 -105.188 303.375 C-108 301 -108 301 -110.25 298.5 C-112.878 296.11 -114.551 295.275 -117.75 293.938 C-124.554 290.754 -127.851 285.023 -132 279 C-132.981 277.838 -133.977 276.688 -135 275.562 C-138.481 271.102 -138.149 266.306 -138.281 260.793 C-138.3 260.109 -138.318 259.425 -138.337 258.72 C-138.395 256.542 -138.448 254.365 -138.5 252.188 C-138.568 249.327 -138.642 246.466 -138.719 243.605 C-138.749 242.339 -138.779 241.072 -138.811 239.766 C-139.01 235.792 -139.477 231.944 -140 228 C-140.457 218.009 -136.801 209.524 -130.297 202.041 C-125.09 196.453 -119.648 191.069 -113.656 186.324 C-111.086 184.075 -110.231 182.911 -109.062 179.812 C-104.263 170.494 -92.524 165.299 -83.062 162.062 C-79.853 160.409 -78.487 157.719 -76.559 154.758 C-74.156 152.048 -71.631 151.91 -68.16 151.418 C-64.906 150.788 -62.684 148.885 -60 147 C-57.996 146.215 -55.988 145.535 -53.93 144.906 C-51.827 144.092 -51.827 144.092 -50.367 141.957 C-46.682 138.911 -42.898 139.286 -38.25 139.188 C-37.381 139.149 -36.512 139.111 -35.617 139.072 C-31.524 138.928 -27.66 138.98 -23.609 139.613 C-19.914 140.009 -19.041 139.796 -16 138 C-13.922 137.988 -13.922 137.988 -11.75 138.312 C-10.969 138.419 -10.188 138.526 -9.383 138.637 C-8.596 138.757 -7.81 138.876 -7 139 C-1.464 139.934 -1.464 139.934 4 139 C5.702 138.984 7.405 139.033 9.105 139.121 C10.088 139.169 11.071 139.218 12.084 139.268 C13.108 139.324 14.132 139.38 15.188 139.438 C16.223 139.49 17.259 139.542 18.326 139.596 C20.884 139.725 23.442 139.86 26 140 C28.707 133.844 29.345 129.112 29.062 122.438 C28.742 113.858 28.742 113.858 29.969 109.777 C31.563 103.937 31.409 98.151 31.438 92.125 C31.487 90.282 31.487 90.282 31.537 88.402 C31.601 77.543 28.523 71.536 21.5 63.438 C18.764 60.229 16.468 57.224 14.5 53.5 C12.629 50.31 11.24 49.468 7.688 48.5 C6.906 48.308 6.125 48.116 5.32 47.918 C2.4 46.763 1.101 45.178 -0.938 42.812 C-3.714 39.725 -3.714 39.725 -7.582 38.586 C-10.221 38.645 -10.221 38.645 -12.703 39.012 C-15.674 38.997 -16.828 37.938 -19 36 C-19.557 36.33 -20.114 36.66 -20.688 37 C-23.517 38.224 -24.928 38.419 -28 38 C-29.35 37.369 -30.683 36.698 -32 36 C-36.271 33.732 -36.271 33.732 -41 34 C-41.866 34.804 -42.733 35.609 -43.625 36.438 C-47.153 39.676 -50.474 39.485 -55.098 39.688 C-59.757 40.189 -63.785 42.034 -68 44 C-67.257 44.722 -66.515 45.444 -65.75 46.188 C-60.163 51.901 -56.873 56.246 -55.812 64.25 C-55.633 65.534 -55.454 66.818 -55.27 68.141 C-54.878 73.74 -55.439 78.042 -58 83 C-58.415 85.518 -58.415 85.518 -58.562 88.125 C-58.903 92.806 -58.903 92.806 -60 95 C-61.996 96.07 -61.996 96.07 -64.438 97.125 C-65.241 97.478 -66.044 97.831 -66.871 98.195 C-69 99 -69 99 -71 99 C-71 99.66 -71 100.32 -71 101 C-78.292 107.902 -88.199 112.359 -98.312 112.438 C-100.211 112.325 -102.107 112.18 -104 112 C-104.932 111.954 -105.864 111.907 -106.824 111.859 C-111.556 111.555 -114.374 111.271 -118 108 C-118.98 106.334 -119.954 104.664 -120.867 102.961 C-122.104 100.819 -123.501 98.904 -125 96.938 C-125.766 95.918 -125.766 95.918 -126.547 94.879 C-127.736 93.341 -128.985 91.851 -130.25 90.375 C-133.089 84.901 -133.428 79.081 -134 73 C-134.085 72.206 -134.17 71.412 -134.258 70.594 C-134.533 65.963 -133.262 63.087 -131.059 59.191 C-129.852 56.693 -129.333 54.335 -128.75 51.625 C-126.335 42.3 -119.851 35.888 -111.965 30.711 C-107.733 28.269 -103.374 26.118 -98.977 23.991 C-93.019 21.09 -87.541 17.627 -82 14 C-78.33 11.798 -75.696 10.89 -71.5 10.562 C-67.046 10.204 -64.624 8.657 -61 6 C-56.122 3.793 -51.327 3.7 -46.062 3.352 C-43.208 3.024 -40.939 2.409 -38.25 1.438 C-33.097 -0.302 -28.074 -0.202 -22.708 0.023 C-14.023 0.316 -8.765 -2.922 0 0 Z " fill="#010101" transform="translate(532,336)"/>
<path d="M0 0 C0.834 0.199 1.668 0.397 2.527 0.602 C6.198 1.694 9.745 3.057 13.312 4.445 C16.246 5.415 19.003 5.851 22.062 6.25 C26.097 6.902 26.882 7.127 29.875 10.188 C31.251 13.697 31.46 14.903 30.125 18.375 C26.801 25.022 22.097 28.521 15.688 31.863 C12.738 33.603 10.221 35.656 7.562 37.812 C2.262 41.915 -2.889 44.254 -9.268 46.26 C-14.784 48.051 -18.931 50.438 -22.191 55.363 C-23.006 57.762 -23.441 60.055 -23.812 62.562 C-24.346 66.086 -24.915 69.571 -25.633 73.062 C-27.273 81.043 -28.161 88.893 -28.457 97.035 C-28.497 98.094 -28.537 99.152 -28.578 100.243 C-29.077 115.166 -29.026 130.1 -29.005 145.03 C-29 149.328 -29.003 153.625 -29.009 157.923 C-29.013 161.269 -29.011 164.615 -29.009 167.96 C-29.008 169.547 -29.009 171.134 -29.011 172.721 C-29.014 174.92 -29.01 177.12 -29.004 179.319 C-29.004 180.565 -29.003 181.811 -29.002 183.095 C-28.89 185.994 -28.516 188.556 -27.875 191.375 C-27.501 197.728 -28.076 203.931 -28.949 210.223 C-28.879 213.217 -28.436 214.815 -27.402 217.559 C-25.488 222.88 -25.572 227.776 -25.75 233.375 C-25.894 239.517 -25.917 245.413 -25 251.5 C-24.875 253.375 -24.875 253.375 -25.875 256.375 C-26.33 260.971 -26.34 264.445 -24.25 268.625 C-22.875 271.375 -22.875 271.375 -23.625 273.938 C-24.037 274.742 -24.45 275.546 -24.875 276.375 C-25.762 279.761 -26.003 280.99 -24.875 284.375 C-24.677 287.881 -24.532 291.382 -24.445 294.893 C-24.247 299.712 -23.52 304.136 -22.406 308.832 C-20.469 317.436 -20.116 325.969 -19.75 334.75 C-19.641 337.142 -19.529 339.533 -19.413 341.924 C-19.343 343.396 -19.277 344.867 -19.216 346.339 C-18.931 356.655 -18.931 356.655 -14.375 365.625 C-12.105 368.546 -10.484 370.688 -9.875 374.375 C-4.554 375.439 0.946 376.108 6.296 374.874 C10.312 374.166 14.252 374.244 18.322 374.261 C19.698 374.261 19.698 374.261 21.102 374.261 C24.127 374.262 27.151 374.27 30.176 374.277 C32.276 374.279 34.376 374.281 36.477 374.282 C41.999 374.285 47.521 374.295 53.043 374.306 C58.68 374.317 64.318 374.321 69.955 374.326 C81.012 374.337 92.068 374.354 103.125 374.375 C103.425 373.593 103.725 372.811 104.035 372.005 C105.156 369.3 106.521 367.356 108.25 365 C115.947 353.174 119.322 338.377 123.328 324.953 C124.234 322.022 125.295 319.181 126.422 316.328 C127.238 314.061 127.823 311.767 128.438 309.438 C130.408 302.767 133.71 297.337 139.125 292.938 C142.027 290.459 143.314 288.628 145.188 285.375 C150.569 276.106 150.569 276.106 155.379 274.73 C158.324 274.393 160.288 274.488 163.125 275.375 C168.294 279.609 171.931 285.103 172.887 291.758 C172.965 292.621 173.044 293.485 173.125 294.375 C173.255 295.445 173.385 296.515 173.52 297.617 C175.314 316.59 172.552 335.453 168.344 353.93 C166.35 362.716 164.863 371.236 164.562 380.25 C164.201 389.984 164.201 389.984 163.125 394.375 C158.633 395.872 154.141 397.37 149.648 398.867 C148.87 399.132 148.091 399.396 147.289 399.668 C145.493 400.255 143.671 400.756 141.844 401.234 C138.288 402.726 136.679 404.779 134.25 407.75 C130.113 412.537 126.875 414.911 121.125 417.375 C120.465 418.365 119.805 419.355 119.125 420.375 C108.981 425.921 95.448 424.515 84.254 424.339 C79.987 424.287 79.987 424.287 75.774 424.875 C72.724 425.451 69.905 425.47 66.801 425.438 C65.608 425.43 64.415 425.422 63.186 425.414 C61.949 425.401 60.712 425.388 59.438 425.375 C56.975 425.35 54.513 425.329 52.051 425.312 C50.962 425.301 49.873 425.289 48.751 425.277 C46.144 425.193 46.144 425.193 44.125 426.375 C42.708 426.503 41.286 426.577 39.863 426.621 C38.999 426.653 38.134 426.685 37.243 426.718 C36.317 426.749 35.392 426.78 34.438 426.812 C26.697 427.106 19.271 427.766 11.645 429.168 C8.48 429.354 6.43 429.105 3.391 428.426 C-2.115 427.198 -7.321 427.218 -12.938 427.375 C-14.803 427.427 -16.669 427.469 -18.535 427.5 C-19.346 427.523 -20.157 427.546 -20.992 427.57 C-23.539 427.398 -25.68 426.981 -28.147 426.382 C-32.774 425.301 -37.12 425.1 -41.855 425.145 C-43.08 425.145 -43.08 425.145 -44.33 425.146 C-46.04 425.149 -47.75 425.157 -49.46 425.169 C-52.066 425.188 -54.673 425.19 -57.279 425.189 C-58.951 425.194 -60.622 425.2 -62.293 425.207 C-63.065 425.208 -63.837 425.209 -64.632 425.21 C-68.828 425.247 -72.734 425.623 -76.875 426.375 C-78.354 426.459 -79.835 426.505 -81.316 426.508 C-82.137 426.51 -82.958 426.512 -83.804 426.514 C-84.673 426.51 -85.542 426.505 -86.438 426.5 C-87.349 426.496 -88.261 426.492 -89.2 426.488 C-95.844 426.435 -102.485 426.305 -109.125 426.062 C-109.969 426.04 -110.813 426.018 -111.682 425.995 C-120.059 425.627 -129.709 423.443 -135.875 417.375 C-137.851 413.839 -138.934 410.303 -139.875 406.375 C-140.206 405.008 -140.206 405.008 -140.543 403.613 C-140.991 401.051 -141.228 398.953 -140.875 396.375 C-138.312 393.812 -138.312 393.812 -136.598 392.691 C-134.523 391.106 -133.575 389.493 -132.25 387.25 C-126.752 378.627 -118.81 371.144 -108.875 368.375 C-107.389 367.659 -105.91 366.929 -104.438 366.188 C-99.748 364.039 -95.985 364.051 -90.875 364.375 C-89.169 361.425 -88.66 359.536 -88.934 356.148 C-88.99 355.297 -89.047 354.447 -89.106 353.57 C-89.208 352.174 -89.208 352.174 -89.312 350.75 C-89.935 340.22 -89.826 329.784 -89.5 319.25 C-89.478 318.499 -89.457 317.747 -89.435 316.973 C-89.062 304.31 -89.062 304.31 -88.366 300.833 C-87.284 295.413 -87.647 289.757 -87.625 284.25 C-87.604 282.982 -87.584 281.713 -87.562 280.406 C-87.534 273.455 -88.004 267.421 -90.215 260.808 C-91.216 257.117 -91.019 253.566 -90.93 249.77 C-90.863 245.648 -90.955 241.555 -91.125 237.438 C-91.139 236.715 -91.154 235.993 -91.168 235.25 C-91.34 230.843 -91.34 230.843 -93.884 227.417 C-97.063 222.56 -96.405 217.595 -96.336 211.918 C-96.335 210.093 -96.335 210.093 -96.333 208.23 C-96.327 205.657 -96.311 203.084 -96.287 200.511 C-96.25 196.587 -96.246 192.664 -96.246 188.74 C-96.236 186.237 -96.225 183.734 -96.211 181.23 C-96.209 180.063 -96.206 178.895 -96.204 177.691 C-96.133 171.543 -95.56 166.28 -93.875 160.375 C-93.639 158.129 -93.639 158.129 -93.75 156.191 C-93.775 155.148 -93.775 155.148 -93.801 154.084 C-93.837 153.022 -93.837 153.022 -93.875 151.938 C-93.984 146.462 -93.739 141.727 -92.246 136.426 C-91.649 133.126 -92.224 130.015 -92.781 126.734 C-92.897 123.831 -91.963 122.051 -90.875 119.375 C-89.99 110.118 -91.192 100.665 -92.163 91.455 C-92.738 85.826 -92.933 80.341 -92.77 74.682 C-92.727 72.184 -92.727 72.184 -94.312 69.5 C-96.843 64.439 -96.635 58.963 -96.875 53.375 C-107.577 54.91 -117.963 56.702 -128.359 59.703 C-136.139 61.19 -142.37 58.432 -148.875 54.375 C-152.338 50.827 -153.718 48.19 -154.148 43.219 C-153.815 38.528 -152.495 35.09 -150.5 30.875 C-149.966 29.744 -149.966 29.744 -149.422 28.59 C-146.643 23.098 -143.727 19.876 -138.312 16.789 C-135.775 15.317 -133.964 13.672 -131.875 11.625 C-124.507 5.052 -114.298 4.65 -104.875 3.375 C-103.904 3.202 -102.933 3.029 -101.932 2.851 C-96.575 2.089 -91.187 2.289 -85.789 2.336 C-83.36 2.346 -80.93 2.355 -78.501 2.362 C-77.245 2.366 -75.989 2.37 -74.695 2.374 C-64.789 2.377 -54.884 2.217 -44.979 2.058 C-42.461 2.019 -39.942 1.984 -37.424 1.953 C-33.707 1.907 -29.99 1.85 -26.273 1.789 C-25.158 1.778 -24.042 1.766 -22.893 1.754 C-17.275 1.648 -12.112 1.227 -6.67 -0.212 C-4.267 -0.765 -2.386 -0.569 0 0 Z " fill="#010100" transform="translate(171.875,220.625)"/>
<path d="M0 0 C0.982 0.404 0.982 0.404 1.984 0.816 C6.889 2.889 6.889 2.889 8 4 C8.879 12.101 8.908 18.681 3.707 25.223 C0.16 28.916 -2.468 30.758 -7.562 31.562 C-11.904 30.852 -13.354 29.448 -16 26 C-16 25.01 -16 24.02 -16 23 C-16.99 23.66 -17.98 24.32 -19 25 C-19.279 27.533 -19.373 29.786 -19.312 32.312 C-19.309 33.629 -19.305 34.945 -19.301 36.301 C-19.022 39.726 -18.441 41.929 -17 45 C-15.822 48.829 -14.86 52.641 -14.062 56.562 C-13.442 59.497 -12.786 61.411 -11.375 64.125 C-9.676 67.678 -9.559 70.106 -10 74 C-11.312 75.562 -11.312 75.562 -13 77 C-14.832 80.282 -16.238 83.596 -17.5 87.125 C-18.907 90.946 -20.14 94.128 -24 95.938 C-26.236 96.898 -26.236 96.898 -27.438 99.5 C-29.335 102.536 -30.698 102.844 -34 104 C-34.474 104.495 -34.949 104.99 -35.438 105.5 C-37.649 107.623 -40.104 108.095 -43 109 C-43.99 109.66 -44.98 110.32 -46 111 C-47.996 111.679 -49.996 112.346 -52 113 C-52.548 113.349 -53.096 113.699 -53.66 114.059 C-57.203 115.484 -60.746 115.168 -64.5 115.062 C-70.814 114.888 -70.814 114.888 -77 116 C-77.194 117.979 -77.38 119.958 -77.562 121.938 C-77.667 123.04 -77.771 124.142 -77.879 125.277 C-77.919 126.176 -77.959 127.074 -78 128 C-73.141 132.859 -55.378 130.425 -48.904 130.605 C-47.702 130.643 -46.5 130.68 -45.262 130.719 C-44.179 130.749 -43.095 130.779 -41.979 130.811 C-39.22 130.986 -36.696 131.412 -34 132 C-32.783 132.144 -31.566 132.289 -30.312 132.438 C-27 133 -27 133 -25 135 C-23.532 135.326 -22.05 135.59 -20.562 135.812 C-16.229 136.697 -16.229 136.697 -14.25 139.312 C-13.837 140.199 -13.425 141.086 -13 142 C-12.154 142.846 -11.309 143.691 -10.438 144.562 C-8.243 146.757 -7.311 148.283 -6 151 C-4.515 151.99 -4.515 151.99 -3 153 C-0.38 159.206 -0.011 166.376 -1 173 C-2.961 175.648 -2.961 175.648 -5 178 C-5.17 178.723 -5.34 179.446 -5.516 180.191 C-6 182 -6 182 -7.672 183.09 C-8.701 183.509 -8.701 183.509 -9.75 183.938 C-12.78 185.297 -14.134 186.141 -16.5 188.625 C-19.407 191.387 -21.212 191.719 -25.02 192.477 C-28.125 193.297 -30.414 195.145 -33 197 C-36.211 198.708 -39.465 200.211 -42.812 201.625 C-45.807 202.684 -45.807 202.684 -47 204 C-48.563 203.994 -50.126 203.945 -51.688 203.875 C-56.294 203.816 -58.96 204.705 -63 207 C-68.015 208.128 -72.95 208.183 -78.062 208.188 C-78.852 208.2 -79.642 208.212 -80.455 208.225 C-84.834 208.236 -87.965 207.849 -92 206 C-94.432 205.557 -94.432 205.557 -96.812 205.375 C-97.603 205.3 -98.393 205.225 -99.207 205.148 C-100.095 205.075 -100.095 205.075 -101 205 C-101.33 204.01 -101.66 203.02 -102 202 C-103.663 201.324 -105.33 200.658 -107 200 C-110.918 196.62 -113.642 193.03 -114.551 187.879 C-114.677 182.436 -114.563 179.23 -111 175 C-110.533 174.185 -110.067 173.371 -109.586 172.531 C-107.862 169.779 -105.954 167.758 -103.625 165.5 C-102.434 164.338 -102.434 164.338 -101.219 163.152 C-100.487 162.442 -99.754 161.732 -99 161 C-98.039 160.023 -97.081 159.044 -96.125 158.062 C-94 156 -94 156 -91 154 C-91 153.01 -91 152.02 -91 151 C-92.238 150.608 -93.475 150.216 -94.75 149.812 C-99.682 147.957 -101.642 145.263 -104.312 140.812 C-105.371 136.482 -104.628 132.372 -104 128 C-102.68 127.67 -101.36 127.34 -100 127 C-99.914 126.241 -99.827 125.481 -99.738 124.699 C-98.58 116.508 -98.58 116.508 -95.5 113.812 C-93 113 -93 113 -91 113 C-93.397 106.072 -93.397 106.072 -97.625 100.188 C-103.581 92.194 -102.111 81.763 -100.801 72.41 C-99.973 68.883 -98.733 66.169 -97 63 C-96.638 62.241 -96.276 61.481 -95.902 60.699 C-95.584 60.035 -95.266 59.371 -94.938 58.688 C-94.456 57.672 -94.456 57.672 -93.965 56.637 C-93 55 -93 55 -91 54 C-89.866 51.983 -89.866 51.983 -89 50 C-88.34 50 -87.68 50 -87 50 C-86.691 48.886 -86.691 48.886 -86.375 47.75 C-84.588 44.176 -82.44 42.935 -79 41 C-78.34 41 -77.68 41 -77 41 C-76.898 40.394 -76.796 39.788 -76.691 39.164 C-75.486 35.39 -72.373 33.812 -69 32 C-66.342 31.125 -63.749 30.569 -61 30 C-60.505 29.505 -60.505 29.505 -60 29 C-56.926 28.694 -53.837 28.722 -50.75 28.688 C-49.89 28.658 -49.03 28.629 -48.145 28.6 C-43.846 28.557 -41.661 28.552 -38.016 31.02 C-37.35 31.673 -36.685 32.327 -36 33 C-33.879 33.234 -33.879 33.234 -32.469 31.492 C-30.521 28.188 -30.055 24.86 -29.5 21.125 C-28.453 14.158 -27.045 7.753 -21.141 3.176 C-14.723 -0.349 -6.816 -3.541 0 0 Z " fill="#040304" transform="translate(474,56)"/>
<path d="M0 0 C2.511 0.575 4.786 0.527 7.359 0.469 C11.711 0.429 15.741 0.789 20.047 1.469 C27.466 2.282 34.773 2.553 42.234 2.406 C44.742 2.462 46.644 2.855 49.047 3.469 C50.652 3.463 52.256 3.419 53.859 3.344 C58.607 3.295 61.775 4.292 66.047 6.469 C67.161 6.922 68.274 7.376 69.422 7.844 C74.738 10.227 79.752 13.081 84.734 16.094 C87.153 17.574 87.153 17.574 90.234 19.031 C93.047 20.469 93.047 20.469 95.047 22.469 C95.172 25.094 95.172 25.094 95.047 27.469 C95.707 27.469 96.367 27.469 97.047 27.469 C100.061 30.596 100.605 33.427 101.172 37.656 C101.393 41.379 101.393 41.379 103.047 44.469 C103.585 55.003 100.54 64.681 93.828 72.797 C91.994 74.518 90.284 75.364 88.047 76.469 C87.122 77.89 86.199 79.313 85.305 80.754 C81.374 86.112 75.539 89.887 70.047 93.469 C68.952 94.351 67.869 95.247 66.797 96.156 C63.605 98.841 61.815 99.59 57.801 100.188 C56.964 100.315 56.126 100.443 55.264 100.574 C54.388 100.704 53.512 100.835 52.609 100.969 C50.881 101.227 49.153 101.487 47.426 101.75 C46.658 101.864 45.891 101.978 45.1 102.096 C42.858 102.453 42.858 102.453 40.047 103.469 C37.247 103.734 34.447 103.913 31.641 104.09 C28.816 104.313 28.816 104.313 26.047 106.469 C25.166 111.393 25.948 116.45 27.047 121.281 C28.415 127.324 28.221 133.306 28.047 139.469 C34.688 140.188 41.152 140.548 47.832 140.309 C50.047 140.469 50.047 140.469 52.047 142.469 C52.422 145.344 52.422 145.344 52.047 148.469 C49.584 151.662 46.597 153.6 43.047 155.469 C42.387 155.469 41.727 155.469 41.047 155.469 C40.98 156.081 40.913 156.693 40.844 157.324 C40.047 159.469 40.047 159.469 38 160.77 C31.301 163.277 26.171 163.671 19.09 162.633 C16.064 162.272 16.064 162.272 13.445 163.406 C8.181 165.052 2.967 164.837 -2.516 164.844 C-3.639 164.868 -4.762 164.893 -5.92 164.918 C-14.042 164.947 -14.042 164.947 -18.242 162.742 C-19.953 160.469 -19.953 160.469 -20.223 158.109 C-20.072 157.32 -19.921 156.532 -19.766 155.719 C-19.559 154.52 -19.559 154.52 -19.348 153.297 C-19.217 152.694 -19.087 152.09 -18.953 151.469 C-18.149 151.221 -17.344 150.974 -16.516 150.719 C-15.247 150.1 -15.247 150.1 -13.953 149.469 C-13.859 148.833 -13.765 148.198 -13.668 147.543 C-13.432 146.858 -13.196 146.174 -12.953 145.469 C-9.921 143.992 -6.833 142.991 -3.641 141.91 C-0.778 140.779 -0.778 140.779 -0.289 138.346 C0.117 134.868 0.14 131.495 0.109 127.992 C0.101 126.512 0.092 125.031 0.084 123.551 C0.078 122.782 0.072 122.013 0.065 121.221 C-0.098 99.972 -0.098 99.972 0.547 90.469 C1.077 82.593 1.16 74.736 1.172 66.844 C1.176 65.637 1.181 64.431 1.186 63.188 C1.183 61.513 1.183 61.513 1.18 59.805 C1.179 58.8 1.177 57.795 1.176 56.759 C1.304 54.504 1.304 54.504 0.047 53.469 C-0.166 50.548 -0.33 47.643 -0.453 44.719 C-0.737 37.539 -0.737 37.539 -1.953 30.469 C-2.139 29.582 -2.324 28.695 -2.516 27.781 C-3.853 25.095 -3.853 25.095 -7.453 24.219 C-10.684 23.566 -13.855 23.348 -17.141 23.156 C-20.822 22.828 -21.877 22.523 -25.016 20.281 C-27.219 17.083 -28.115 15.365 -27.953 11.469 C-26.324 9.2 -25.153 8.103 -22.953 6.469 C-22.15 5.853 -21.347 5.236 -20.52 4.602 C-13.733 -0.192 -8.192 -2.228 0 0 Z " fill="#030303" transform="translate(39.953125,40.53125)"/>
<path d="M0 0 C0.704 -0.021 1.408 -0.041 2.133 -0.062 C6.897 -0.098 10.132 0.612 14.25 3.25 C16.44 6.535 16.603 8.081 16.875 11.938 C16.95 12.931 17.025 13.925 17.102 14.949 C17.151 15.708 17.2 16.468 17.25 17.25 C22.473 16.989 24.985 15.081 28.887 11.945 C32.607 9.277 36.686 7.415 40.809 5.449 C43.141 4.467 43.141 4.467 44.25 3.25 C51.814 1.764 58.818 1.754 65.637 5.594 C71.448 9.666 75.201 14.416 77.25 21.25 C78.233 27.715 78.443 34.22 78.438 40.75 C78.438 41.634 78.439 42.519 78.439 43.43 C78.374 51.998 77.691 60.495 76.966 69.029 C76.317 76.801 75.995 84.448 76.25 92.25 C77.688 91.94 79.125 91.627 80.562 91.312 C81.763 91.051 81.763 91.051 82.988 90.785 C85.395 90.251 85.395 90.251 88.25 89.25 C91.438 90.188 91.438 90.188 94.25 91.25 C93.871 96.56 92.092 99.707 88.25 103.25 C82.927 107.514 77.53 110.877 71.16 113.328 C69.042 114.35 67.832 115.529 66.25 117.25 C63.017 119.912 60.768 120.476 56.688 120.188 C53.688 119.717 52.23 119.237 49.625 117.562 C47.746 114.402 48.619 112.847 49.25 109.25 C49.319 106.528 49.344 103.834 49.312 101.113 C49.309 100.352 49.305 99.591 49.301 98.806 C49.289 96.392 49.27 93.977 49.25 91.562 C49.223 88.371 49.203 85.18 49.188 81.988 C49.175 80.891 49.175 80.891 49.162 79.772 C49.147 76.647 49.253 74.24 50.25 71.25 C50.371 68.528 50.438 65.832 50.453 63.109 C50.459 62.309 50.465 61.509 50.47 60.684 C50.48 58.989 50.486 57.295 50.49 55.6 C50.5 53.023 50.531 50.448 50.562 47.871 C50.569 46.221 50.574 44.572 50.578 42.922 C50.597 41.776 50.597 41.776 50.616 40.607 C50.594 35.442 49.684 31.832 47.25 27.25 C43.4 25.325 39.417 25.433 35.25 26.25 C32.44 27.989 30.11 29.951 27.648 32.152 C24.9 34.556 22.032 36.296 18.844 38.047 C16.809 39.583 16.222 40.898 15.25 43.25 C14.937 45.554 14.937 45.554 14.959 48.031 C14.947 48.976 14.934 49.92 14.921 50.893 C14.919 51.907 14.916 52.921 14.914 53.965 C14.907 55.013 14.901 56.061 14.894 57.14 C14.884 59.355 14.879 61.57 14.879 63.785 C14.875 67.172 14.839 70.557 14.801 73.943 C14.795 76.096 14.791 78.249 14.789 80.402 C14.775 81.414 14.76 82.426 14.746 83.468 C14.774 87.876 14.813 90.513 17.099 94.363 C19.77 96.706 21.775 97.223 25.25 97.875 C29.313 98.657 32.247 99.29 35.25 102.25 C35.25 103.24 35.25 104.23 35.25 105.25 C34.309 105.709 33.368 106.168 32.398 106.641 C31.141 107.26 29.883 107.88 28.625 108.5 C27.699 108.951 27.699 108.951 26.754 109.41 C23.688 110.927 20.979 112.443 18.176 114.438 C12.978 117.657 7.21 117.119 1.25 117.25 C0.483 117.276 -0.284 117.302 -1.074 117.328 C-21.501 117.986 -21.501 117.986 -28.75 114.25 C-30.656 112.453 -30.656 112.453 -31.75 110.25 C-30.835 106.097 -28.732 103.956 -25.562 101.25 C-24.765 100.551 -23.967 99.853 -23.145 99.133 C-21.053 97.488 -19.088 96.354 -16.75 95.125 C-14.232 93.361 -13.789 92.47 -13.243 89.384 C-13.158 87.669 -13.158 87.669 -13.071 85.919 C-13.007 84.662 -12.942 83.404 -12.876 82.109 C-12.686 76.293 -12.607 70.487 -12.617 64.668 C-12.616 63.447 -12.615 62.226 -12.614 60.969 C-12.614 58.42 -12.615 55.872 -12.62 53.323 C-12.625 49.402 -12.62 45.481 -12.613 41.561 C-12.614 39.076 -12.615 36.59 -12.617 34.105 C-12.615 32.93 -12.613 31.754 -12.611 30.542 C-12.614 29.466 -12.617 28.39 -12.621 27.282 C-12.621 26.332 -12.622 25.381 -12.623 24.402 C-12.51 22.269 -12.51 22.269 -13.75 21.25 C-15.415 21.116 -17.082 21.019 -18.75 20.938 C-24.403 20.494 -28.773 18.892 -33.75 16.25 C-34.295 12.547 -33.762 11.269 -31.688 8.062 C-28.842 4.892 -25.903 4.112 -21.75 3.25 C-21.09 2.92 -20.43 2.59 -19.75 2.25 C-17.191 1.939 -14.631 1.74 -12.062 1.531 C-7.94 1.03 -4.321 0.031 0 0 Z " fill="#030304" transform="translate(264.75,87.75)"/>
<path d="M0 0 C1.483 0.004 1.483 0.004 2.996 0.009 C10.921 0.184 16.548 1.6 23.5 5.5 C24.634 5.912 25.769 6.325 26.938 6.75 C30.943 9.485 32.928 12.949 34.5 17.5 C35.087 23.485 33.212 29.769 29.5 34.5 C26.998 36.407 24.466 37.489 21.5 38.5 C20.75 38.759 20 39.018 19.227 39.285 C15.375 40.383 12.437 40.85 8.625 39.438 C5.132 37.272 3.823 36.386 2.5 32.5 C2.531 27.711 3.263 23.119 4.5 18.5 C0.385 16.442 -5.282 17.861 -9.574 19.098 C-13.294 20.574 -16.25 22.17 -18.5 25.5 C-19.123 30.931 -18.869 35.974 -15.5 40.5 C-12.796 42.979 -10.002 45.249 -7.094 47.484 C-5.05 49.073 -3.32 50.68 -1.5 52.5 C-0.675 52.912 0.15 53.325 1 53.75 C6.076 56.288 10.746 59.409 15.5 62.5 C16.531 63.16 17.562 63.82 18.625 64.5 C19.574 65.16 20.523 65.82 21.5 66.5 C22.221 66.954 22.941 67.407 23.684 67.875 C31.14 72.969 34.147 79.142 36.008 87.887 C36.569 94.681 33.004 99.92 29.5 105.5 C28.84 105.5 28.18 105.5 27.5 105.5 C27.005 106.985 27.005 106.985 26.5 108.5 C21.129 112.5 21.129 112.5 18.5 112.5 C18.005 113.985 18.005 113.985 17.5 115.5 C8.334 122.998 -5.482 121.508 -16.5 120.5 C-26.542 119.028 -37.763 116.511 -44.5 108.5 C-47.84 103.806 -49.166 100.428 -48.891 94.637 C-48.272 91.253 -46.652 89.13 -44.5 86.5 C-43.819 85.613 -43.139 84.726 -42.438 83.812 C-39.13 79.865 -36.47 76.877 -31.133 76.199 C-25.843 76.174 -22.013 76.418 -17.5 79.5 C-14.051 83.295 -14.064 86.132 -14.195 91.082 C-14.578 94.118 -15.596 96.12 -17.5 98.5 C-13.476 100.479 -11.053 100.574 -6.688 99.688 C-5.645 99.488 -4.602 99.288 -3.527 99.082 C-2.528 98.89 -1.529 98.698 -0.5 98.5 C2.164 98.122 4.827 97.808 7.5 97.5 C7.058 91.977 5.945 88.837 2.5 84.5 C-0.072 82.456 -2.817 80.763 -5.625 79.062 C-7.16 78.103 -8.694 77.142 -10.227 76.18 C-10.964 75.72 -11.702 75.261 -12.462 74.788 C-15.83 72.66 -19.066 70.358 -22.301 68.035 C-23.788 66.997 -25.308 66.005 -26.855 65.059 C-31.93 61.939 -35.342 58.701 -38.793 53.836 C-40.451 51.461 -40.451 51.461 -42.488 49.414 C-47.733 43.76 -48.223 39.248 -48.039 31.637 C-47.461 28.272 -46.646 27.063 -44.5 24.5 C-44.21 23.678 -43.92 22.855 -43.621 22.008 C-42.184 18.794 -40.365 17.474 -37.562 15.375 C-34.1 12.793 -34.1 12.793 -30.918 9.891 C-26.369 5.429 -20.594 4.32 -14.5 3.5 C-13.872 3.006 -13.243 2.511 -12.596 2.002 C-8.842 -0.688 -4.476 -0.028 0 0 Z " fill="#030304" transform="translate(604.5,84.5)"/>
<path d="M0 0 C3.677 1.43 4.693 1.088 8.375 0.312 C12.972 2.507 12.972 2.507 14.375 5.312 C14.634 9.364 14.679 10.856 12.375 14.312 C11.715 14.312 11.055 14.312 10.375 14.312 C10.533 15.006 10.692 15.699 10.855 16.413 C11.416 19.542 11.586 22.53 11.691 25.707 C11.733 26.909 11.775 28.111 11.818 29.35 C11.858 30.595 11.897 31.841 11.938 33.125 C11.981 34.39 12.024 35.655 12.068 36.959 C12.174 40.077 12.276 43.195 12.375 46.312 C14.025 46.643 15.675 46.972 17.375 47.312 C18.5 51.062 18.5 51.062 17.375 53.312 C16.055 53.312 14.735 53.312 13.375 53.312 C13.366 53.891 13.356 54.47 13.347 55.066 C13.128 65.835 12.903 75.37 8.375 85.312 C7.565 87.338 7.565 87.338 7.375 89.312 C8.365 90.798 8.365 90.798 9.375 92.312 C9 95 9 95 8.375 97.312 C6.89 97.808 6.89 97.808 5.375 98.312 C4.571 97.653 3.766 96.993 2.938 96.312 C2.092 95.653 1.246 94.993 0.375 94.312 C-1.572 94.582 -1.572 94.582 -3.625 95.312 C-12.571 97.57 -22.104 98.752 -31.125 96.25 C-34.601 95.319 -36.271 95.162 -39.625 96.312 C-41.11 97.303 -41.11 97.303 -42.625 98.312 C-45.312 97.938 -45.312 97.938 -47.625 97.312 C-47.955 96.322 -48.285 95.332 -48.625 94.312 C-48.109 93.694 -47.594 93.075 -47.062 92.438 C-46.588 91.736 -46.114 91.035 -45.625 90.312 C-46.213 87.917 -46.213 87.917 -47.625 85.312 C-50.534 78.835 -51.033 73.556 -50.875 66.5 C-50.87 65.56 -50.865 64.619 -50.859 63.65 C-50.781 56.78 -50.781 56.78 -49.625 53.312 C-50.409 53.519 -51.192 53.725 -52 53.938 C-52.866 54.061 -53.732 54.185 -54.625 54.312 C-55.285 53.653 -55.945 52.992 -56.625 52.312 C-56.625 50.312 -56.625 50.312 -55.625 48.312 C-52.562 47.062 -52.562 47.062 -49.625 46.312 C-49.794 45.573 -49.963 44.833 -50.137 44.07 C-50.963 37.713 -50.547 31.3 -50.322 24.902 C-50.305 23.859 -50.287 22.817 -50.27 21.742 C-50.242 20.796 -50.215 19.85 -50.187 18.875 C-50.751 15.574 -52.249 14.575 -54.625 12.312 C-54.625 8.593 -54.427 6.307 -52.062 3.375 C-49.155 2.108 -46.819 2.332 -43.695 2.465 C-40.823 2.253 -38.835 0.846 -36.441 -0.664 C-25.939 -6.582 -10.426 -4.854 0 0 Z " fill="#6ECEDF" transform="translate(785.625,542.6875)"/>
<path d="M0 0 C0.985 0.015 1.97 0.031 2.984 0.047 C5.25 0.25 5.25 0.25 6.25 1.25 C8.433 1.485 10.622 1.664 12.812 1.812 C14.01 1.896 15.208 1.98 16.441 2.066 C17.368 2.127 18.295 2.188 19.25 2.25 C20.881 35.949 20.881 35.949 11.25 47.25 C10.676 48.074 10.103 48.897 9.512 49.746 C2.431 59.768 -9.067 70.642 -21.25 73.688 C-31.183 75.091 -44.337 76.88 -52.91 70.785 C-53.517 70.279 -54.124 69.772 -54.75 69.25 C-55.769 68.506 -55.769 68.506 -56.809 67.746 C-63.575 62.438 -69.288 54.541 -71.75 46.25 C-72.848 36.839 -73.774 25.946 -68.562 17.688 C-66.617 15.25 -66.617 15.25 -64.75 13.25 C-63.904 12.239 -63.059 11.229 -62.188 10.188 C-57.4 6.382 -52.139 5.941 -46.184 5.504 C-44.713 5.387 -43.242 5.271 -41.771 5.154 C-39.49 4.983 -37.209 4.814 -34.927 4.648 C-26.207 4.003 -17.969 3.026 -9.459 0.881 C-6.263 0.137 -3.278 -0.089 0 0 Z " fill="#FDFDFD" transform="translate(540.75,516.75)"/>
<path d="M0 0 C0.857 0.5 1.714 1 2.597 1.515 C3.562 2.07 4.528 2.625 5.522 3.197 C6.511 3.785 7.5 4.374 8.519 4.98 C9.978 5.822 9.978 5.822 11.468 6.681 C16.485 9.597 21.446 12.607 26.378 15.664 C27.27 16.216 28.161 16.768 29.08 17.337 C31.269 18.918 31.269 18.918 33.269 21.918 C33.543 23.801 33.543 23.801 33.575 25.943 C33.591 26.747 33.607 27.552 33.623 28.38 C33.629 29.246 33.634 30.112 33.64 31.004 C33.649 31.898 33.658 32.792 33.667 33.713 C33.682 35.604 33.69 37.495 33.694 39.386 C33.706 42.275 33.755 45.162 33.806 48.051 C33.815 49.889 33.822 51.728 33.827 53.566 C33.847 54.428 33.866 55.289 33.886 56.177 C33.853 60.592 33.726 62.346 30.877 65.903 C28.516 67.726 26.225 69.366 23.644 70.855 C22.773 71.359 21.903 71.863 21.007 72.383 C17.378 74.417 13.741 76.431 10.073 78.394 C8.145 79.442 6.234 80.522 4.339 81.629 C3.388 82.178 2.436 82.727 1.456 83.293 C0.604 83.795 -0.248 84.298 -1.126 84.816 C-4.285 86.152 -6.314 86.183 -9.731 85.918 C-12.457 84.728 -12.457 84.728 -15.216 83.066 C-16.743 82.159 -16.743 82.159 -18.302 81.234 C-19.351 80.593 -20.4 79.953 -21.481 79.293 C-22.515 78.675 -23.549 78.058 -24.614 77.422 C-26.666 76.194 -28.713 74.961 -30.757 73.721 C-34.45 71.482 -38.163 69.275 -41.877 67.069 C-43.731 65.918 -43.731 65.918 -44.731 64.918 C-44.871 63.539 -44.943 62.154 -44.988 60.769 C-45.017 59.887 -45.046 59.006 -45.076 58.097 C-45.173 54.047 -45.247 49.997 -45.301 45.946 C-45.338 43.811 -45.392 41.676 -45.465 39.542 C-45.569 36.464 -45.613 33.391 -45.646 30.312 C-45.689 29.362 -45.732 28.412 -45.777 27.433 C-45.758 20.944 -45.758 20.944 -42.888 18.076 C-40.567 16.508 -38.222 15.194 -35.731 13.918 C-34.099 12.899 -34.099 12.899 -32.434 11.86 C-29.167 9.905 -25.89 7.97 -22.606 6.043 C-22.035 5.698 -21.463 5.352 -20.874 4.997 C-19.187 3.979 -17.486 2.983 -15.786 1.988 C-14.293 1.103 -14.293 1.103 -12.77 0.199 C-8.225 -1.718 -4.598 -1.822 0 0 Z " fill="#649CD1" transform="translate(773.7314453125,450.082275390625)"/>
<path d="M0 0 C9.346 6.999 14.924 16.352 16.812 27.875 C17.872 39.846 15.043 50.006 7.789 59.621 C0.686 67.72 -9.202 73.312 -20.07 74.078 C-32.358 74.256 -41.444 71.586 -51.188 63.875 C-60.249 54.679 -63.537 44.276 -63.568 31.652 C-63.333 20.47 -59.327 11.936 -51.512 3.965 C-48.271 1.051 -45.114 -1.235 -41.188 -3.125 C-40.56 -3.442 -39.932 -3.759 -39.285 -4.086 C-26.936 -9.253 -10.979 -7.084 0 0 Z " fill="#F37426" transform="translate(939.1875,355.125)"/>
<path d="M0 0 C3.067 1.269 3.811 2.249 6 5 C7.359 10.688 7.016 16.541 6.574 22.32 C5.834 33.953 5.814 45.578 5.815 57.23 C5.812 60.918 5.794 64.605 5.775 68.293 C5.772 70.651 5.77 73.009 5.77 75.367 C5.762 76.463 5.755 77.559 5.748 78.688 C5.752 80.217 5.752 80.217 5.757 81.777 C5.756 82.668 5.754 83.559 5.753 84.477 C6.028 87.287 6.918 89.406 8 92 C8 92.99 8 93.98 8 95 C9.918 95.186 9.918 95.186 11.875 95.375 C15.375 95.773 18.844 96.257 22.312 96.875 C23.113 97.017 23.914 97.159 24.738 97.305 C27.311 98.096 28.949 99.282 31 101 C30.721 104.351 30.251 105.741 27.875 108.188 C24.656 110.217 21.649 110.986 18 112 C17.325 112.735 17.325 112.735 16.635 113.484 C10.139 119.506 -5.451 117.201 -13.922 116.943 C-16.326 116.875 -18.73 116.839 -21.135 116.805 C-28.869 116.631 -35.379 116.45 -42 112 C-42.438 109.938 -42.438 109.938 -42 107 C-37.579 101.186 -31.109 96.514 -24.916 92.725 C-22.808 91.159 -22.808 91.159 -22.481 88.732 C-22.472 87.845 -22.463 86.959 -22.454 86.045 C-22.434 85.036 -22.415 84.028 -22.394 82.988 C-22.393 81.898 -22.392 80.807 -22.391 79.684 C-22.374 78.557 -22.358 77.431 -22.341 76.271 C-22.292 72.66 -22.271 69.049 -22.25 65.438 C-22.222 63.031 -22.192 60.624 -22.16 58.217 C-22.093 52.771 -22.039 47.326 -22.015 41.88 C-22.005 39.961 -21.988 38.042 -21.963 36.123 C-21.954 35.233 -21.945 34.343 -21.937 33.426 C-21.926 32.644 -21.916 31.862 -21.906 31.056 C-22.047 27.973 -22.782 25.218 -25 23 C-28.312 22.974 -31.611 23.029 -34.922 23.127 C-39.046 23.191 -42.442 23.207 -46 21 C-47.312 18.375 -47.312 18.375 -48 16 C-46.803 14.408 -45.592 12.827 -44.375 11.25 C-43.366 9.927 -43.366 9.927 -42.336 8.578 C-39.267 5.191 -36.544 2.324 -31.821 1.723 C-29.348 1.678 -26.908 1.749 -24.438 1.875 C-15.862 2.231 -8.465 -1.271 0 0 Z " fill="#030303" transform="translate(197,88)"/>
<path d="M0 0 C1.131 0.492 2.262 0.985 3.428 1.492 C11.332 5.202 11.332 5.202 13.518 8.519 C14.327 10.847 14.783 13.07 15.188 15.5 C15.654 17.34 16.129 19.179 16.609 21.016 C17.057 22.926 17.5 24.837 17.938 26.75 C18.287 28.2 18.287 28.2 18.645 29.68 C18.86 30.616 19.075 31.551 19.297 32.516 C19.59 33.773 19.59 33.773 19.89 35.056 C20.43 39.489 19.628 41.91 16.965 45.48 C16.027 46.557 15.08 47.626 14.125 48.688 C13.125 49.831 12.126 50.976 11.129 52.121 C10.385 52.97 10.385 52.97 9.625 53.835 C6.864 57.032 4.267 60.359 1.648 63.672 C0.188 65.5 0.188 65.5 -0.812 66.5 C-5.585 66.792 -10.359 66.814 -15.14 66.85 C-16.748 66.867 -18.356 66.894 -19.964 66.932 C-22.284 66.987 -24.602 67.009 -26.922 67.023 C-27.637 67.046 -28.351 67.069 -29.088 67.092 C-32.912 67.076 -34.598 66.676 -37.588 64.224 C-38.322 63.325 -39.056 62.426 -39.812 61.5 C-40.714 60.47 -40.714 60.47 -41.634 59.419 C-42.181 58.753 -42.729 58.086 -43.293 57.398 C-43.899 56.661 -44.506 55.924 -45.131 55.164 C-45.748 54.409 -46.364 53.653 -47 52.875 C-47.628 52.112 -48.257 51.349 -48.904 50.562 C-56.159 41.718 -56.159 41.718 -55.75 37.125 C-55.079 31.187 -53.815 25.385 -52.5 19.562 C-52.299 18.638 -52.099 17.714 -51.892 16.762 C-51.58 15.443 -51.58 15.443 -51.262 14.098 C-50.988 12.914 -50.988 12.914 -50.71 11.707 C-47.872 4.726 -39.877 2.243 -33.562 -0.812 C-32.455 -1.375 -31.348 -1.938 -30.207 -2.518 C-17.944 -8.474 -12.002 -5.65 0 0 Z " fill="#3676D5" transform="translate(991.8125,513.5)"/>
<path d="M0 0 C2.995 2.4 5.713 4.908 8 8 C8 8.99 8 9.98 8 11 C8.66 10.649 9.32 10.299 10 9.938 C13.941 8.706 17.041 8.878 21 10 C24.236 12.11 25.854 13.781 28 17 C28 18.32 28 19.64 28 21 C28.568 21.124 29.137 21.247 29.723 21.375 C36.49 23.183 39.968 26.347 44 32 C46.038 36.076 45.816 40.601 45 45 C42.038 49.784 38.295 53.899 33 56 C29.915 56.274 29.915 56.274 26.247 56.306 C25.577 56.315 24.906 56.323 24.215 56.332 C22.003 56.356 19.791 56.364 17.578 56.371 C16.034 56.38 14.489 56.389 12.945 56.398 C9.706 56.415 6.469 56.423 3.23 56.426 C-0.903 56.431 -5.036 56.469 -9.17 56.514 C-12.361 56.544 -15.552 56.551 -18.744 56.552 C-20.267 56.556 -21.79 56.569 -23.313 56.59 C-38.691 56.785 -38.691 56.785 -45 51 C-48.685 47.315 -47.604 41.497 -47.651 36.519 C-47.488 29.717 -47.488 29.717 -45.352 26.578 C-43.25 25.062 -43.25 25.062 -41.027 23.695 C-37.468 20.719 -37.059 16.376 -35.918 12.031 C-33.713 4.749 -28.185 1.325 -21.75 -2.25 C-14.531 -4.219 -6.605 -3.592 0 0 Z " fill="#272662" transform="translate(854,593)"/>
<path d="M0 0 C20.13 0 40.26 0 61 0 C61 20.13 61 40.26 61 61 C40.87 61 20.74 61 0 61 C0 40.87 0 20.74 0 0 Z " fill="#F2D859" transform="translate(743,373)"/>
<path d="M0 0 C11.437 6.456 18.852 14.383 22.555 27.266 C24.898 38.507 22.669 48.812 16.68 58.516 C11.811 65.432 5.417 70.736 -2.758 73.266 C-4.078 72.936 -5.398 72.606 -6.758 72.266 C-7.088 65.996 -7.418 59.726 -7.758 53.266 C0.242 50.266 0.242 50.266 3.117 49.516 C5.514 48.376 5.514 48.376 6.555 45.453 C7.789 39.891 7.761 33.914 7.242 28.266 C6.582 27.276 5.922 26.286 5.242 25.266 C4.828 22.566 4.828 22.566 4.617 19.578 C4.542 18.584 4.468 17.59 4.391 16.566 C4.342 15.807 4.293 15.048 4.242 14.266 C0.507 14.764 -1.57 15.141 -4.758 17.266 C-8.262 17.728 -11.789 17.636 -15.32 17.641 C-16.272 17.665 -17.224 17.69 -18.205 17.715 C-25.167 17.743 -30.5 16.286 -36.758 13.266 C-36.727 14.058 -36.696 14.851 -36.665 15.667 C-36.47 21.419 -36.798 24.332 -39.758 29.266 C-40.562 35.84 -40.24 41.578 -36.758 47.266 C-32.684 50.691 -28.828 52.049 -23.758 53.266 C-24.418 55.246 -25.078 57.226 -25.758 59.266 C-28.616 59.508 -30.954 59.695 -33.758 59.266 C-36.383 56.953 -36.383 56.953 -38.758 54.266 C-41.924 52.472 -41.924 52.472 -44.758 51.266 C-44.758 51.926 -44.758 52.586 -44.758 53.266 C-43.892 53.544 -43.892 53.544 -43.008 53.828 C-40.58 55.379 -39.981 56.354 -38.633 58.828 C-37.163 62.301 -37.163 62.301 -34.758 63.266 C-33.221 63.49 -31.678 63.674 -30.133 63.828 C-28.689 63.972 -27.245 64.117 -25.758 64.266 C-25.758 67.236 -25.758 70.206 -25.758 73.266 C-33.285 73.266 -38.234 69.046 -43.758 64.266 C-46.166 61.781 -47.997 59.239 -49.758 56.266 C-50.242 55.49 -50.727 54.714 -51.227 53.914 C-56.113 44.929 -56.174 34.856 -54.059 25.012 C-50.965 15.627 -44.872 7.884 -36.758 2.266 C-33.5 0.668 -30.2 -0.597 -26.758 -1.734 C-18.543 -4.473 -7.765 -3.712 0 0 Z " fill="#050505" transform="translate(989.7578125,421.734375)"/>
<path d="M0 0 C7.502 3.757 12.889 8.683 16.235 16.432 C18.442 23.775 17.378 31.173 14.009 38.006 C9.6 43.548 3.589 47.976 -3.554 48.818 C-5.365 48.913 -7.178 48.972 -8.991 49.006 C-10.801 49.064 -10.801 49.064 -12.647 49.123 C-19.737 49.251 -26.194 49.115 -32.991 47.006 C-34.228 44.532 -34.181 42.749 -34.272 39.982 C-34.309 38.967 -34.346 37.951 -34.384 36.905 C-34.42 35.825 -34.455 34.744 -34.491 33.631 C-34.835 23.898 -34.835 23.898 -35.616 14.193 C-36.821 1.035 -36.821 1.035 -33.632 -4.244 C-26.08 -12.3 -8.145 -3.762 0 0 Z " fill="#FBFCFC" transform="translate(99.9912109375,71.994140625)"/>
<path d="M0 0 C0.124 5.747 0.214 11.494 0.275 17.242 C0.3 19.197 0.334 21.151 0.377 23.106 C0.438 25.918 0.466 28.73 0.488 31.543 C0.514 32.414 0.54 33.285 0.566 34.182 C0.569 38.629 0.475 40.404 -2.387 43.992 C-4.75 45.808 -7.045 47.449 -9.625 48.938 C-10.495 49.442 -11.365 49.946 -12.262 50.465 C-15.89 52.499 -19.528 54.513 -23.195 56.477 C-25.124 57.524 -27.035 58.604 -28.93 59.711 C-29.881 60.26 -30.832 60.809 -31.812 61.375 C-32.665 61.878 -33.517 62.38 -34.395 62.898 C-37.554 64.234 -39.583 64.265 -43 64 C-45.726 62.81 -45.726 62.81 -48.484 61.148 C-50.012 60.242 -50.012 60.242 -51.57 59.316 C-53.144 58.355 -53.144 58.355 -54.75 57.375 C-55.784 56.758 -56.818 56.14 -57.883 55.504 C-60.929 53.681 -63.965 51.842 -67 50 C-68.921 48.845 -70.843 47.691 -72.766 46.539 C-73.992 45.804 -73.992 45.804 -75.243 45.053 C-75.823 44.706 -76.403 44.358 -77 44 C-75.657 39.971 -73.797 39.33 -70.188 37.188 C-68.6 36.219 -68.6 36.219 -66.98 35.23 C-64 34 -64 34 -61.859 34.582 C-59.11 36.679 -56.617 38.979 -54.098 41.344 C-47.702 46.393 -39.723 45.782 -32 45 C-25.741 42.969 -21.787 39.253 -18 34 C-21.457 31.235 -25.143 29.151 -29 27 C-29.247 27.619 -29.495 28.238 -29.75 28.875 C-31.265 31.45 -32.258 31.898 -35 33 C-39.083 33.64 -43.209 33.933 -46.949 31.984 C-50.321 29.274 -51.756 27.021 -52.273 22.73 C-52.582 15.016 -52.582 15.016 -49.812 11.5 C-46.554 8.603 -44.508 7.036 -40.082 6.973 C-35.127 7.335 -32.842 8.798 -29 12 C-25.595 11.599 -22.894 9.971 -19.938 8.312 C-18.977 7.781 -18.017 7.25 -17.027 6.703 C-14.992 5.558 -12.964 4.402 -10.941 3.234 C-9.971 2.683 -9 2.131 -8 1.562 C-6.67 0.791 -6.67 0.791 -5.312 0.004 C-3 -1 -3 -1 0 0 Z " fill="#155793" transform="translate(807,472)"/>
<path d="M0 0 C1.283 -0.03 1.283 -0.03 2.592 -0.061 C9.914 -0.055 14.851 1.935 20.594 6.41 C25.359 11.468 26.936 14.982 26.734 21.957 C25.855 25.202 24.704 26.371 22.062 28.438 C19.039 29.852 19.039 29.852 15.688 31.062 C14.036 31.67 14.036 31.67 12.352 32.289 C10.723 32.858 10.723 32.858 9.062 33.438 C8.049 33.811 7.036 34.185 5.992 34.57 C-3.545 37.393 -17.245 35.967 -26.234 31.973 C-29.122 30.332 -30.456 29.401 -31.938 26.438 C-32.764 21.752 -31.924 18.889 -29.5 14.938 C-22.001 4.573 -12.546 -0.104 0 0 Z " fill="#FAFAFA" transform="translate(418.9375,208.5625)"/>
<path d="M0 0 C0.66 0 1.32 0 2 0 C2.33 2.64 2.66 5.28 3 8 C3.626 8.193 4.253 8.387 4.898 8.586 C5.716 8.846 6.533 9.107 7.375 9.375 C8.187 9.63 8.999 9.885 9.836 10.148 C12 11 12 11 14 13 C16.437 12.73 16.437 12.73 19 12 C20.145 11.722 20.145 11.722 21.312 11.438 C21.869 11.293 22.426 11.149 23 11 C21.25 14.875 21.25 14.875 19 16 C19.656 19.61 19.656 19.61 21 23 C21.225 24.537 21.408 26.08 21.562 27.625 C21.646 28.442 21.73 29.26 21.816 30.102 C21.877 30.728 21.938 31.355 22 32 C24.97 32.495 24.97 32.495 28 33 C28 33.99 28 34.98 28 36 C25.36 35.67 22.72 35.34 20 35 C19.753 35.722 19.505 36.444 19.25 37.188 C17.616 40.864 15.678 44.161 12 46 C12.66 48.64 13.32 51.28 14 54 C13.01 54 12.02 54 11 54 C10.34 52.35 9.68 50.7 9 49 C6.394 48.865 3.795 48.766 1.188 48.688 C0.081 48.625 0.081 48.625 -1.049 48.561 C-3.487 48.451 -3.487 48.451 -7 49 C-8.944 51.404 -8.944 51.404 -10 54 C-10.66 54 -11.32 54 -12 54 C-11.691 52.845 -11.381 51.69 -11.062 50.5 C-10.642 47.468 -10.753 46.366 -12.492 43.793 C-13.768 42.413 -15.081 41.067 -16.434 39.762 C-18 38 -18 38 -18 35 C-22.455 35.495 -22.455 35.495 -27 36 C-27 35.01 -27 34.02 -27 33 C-24.03 32.505 -24.03 32.505 -21 32 C-20.468 29.92 -19.95 27.835 -19.438 25.75 C-19.147 24.59 -18.857 23.43 -18.559 22.234 C-17.904 18.487 -17.904 18.487 -19 15 C-19.99 14.34 -20.98 13.68 -22 13 C-22 12.34 -22 11.68 -22 11 C-21.165 11.217 -21.165 11.217 -20.312 11.438 C-19.549 11.623 -18.786 11.809 -18 12 C-16.824 12.402 -16.824 12.402 -15.625 12.812 C-11.808 13.085 -10.057 11.165 -7 9 C-4.125 8.25 -4.125 8.25 -2 8 C-1.856 6.866 -1.711 5.731 -1.562 4.562 C-1 1 -1 1 0 0 Z " fill="#F7F9FB" transform="translate(973,516)"/>
<path d="M0 0 C4.722 3.285 9.033 7.474 10.875 13 C11.665 20.562 10.642 27.39 5.953 33.508 C3.666 36.087 1.302 38.553 -1.125 41 C-1.779 41.691 -2.432 42.382 -3.105 43.094 C-8.301 48.493 -13.895 53.821 -20.125 58 C-21.445 58 -22.765 58 -24.125 58 C-26.625 54.25 -26.661 52.441 -26.125 48 C-23.938 45.5 -23.938 45.5 -21.125 43 C-20.153 41.841 -19.215 40.652 -18.312 39.438 C-17.894 38.879 -17.475 38.321 -17.043 37.746 C-15.815 35.739 -15.815 35.739 -16.125 32 C-17.537 30.359 -17.537 30.359 -19.438 29 C-20.074 28.481 -20.711 27.961 -21.367 27.426 C-21.947 26.955 -22.527 26.485 -23.125 26 C-25.965 23.343 -26.343 21.398 -26.5 17.625 C-26.276 12.36 -25.037 8.924 -21.25 5.113 C-14.686 -0.835 -8.677 -2.777 0 0 Z " fill="#040406" transform="translate(532.125,16)"/>
<path d="M0 0 C3.339 2.273 5.834 4.579 8 8 C8 8.66 8 9.32 8 10 C6.592 10.869 5.174 11.72 3.75 12.562 C2.961 13.038 2.172 13.514 1.359 14.004 C-1 15 -1 15 -3.188 14.746 C-5 14 -5 14 -6.75 12.5 C-9.973 10.352 -13.199 9.875 -17 10 C-21.269 11.53 -23.631 13.162 -26 17 C-26.758 21.573 -26.546 25.752 -24.688 30 C-22.605 32.468 -20.951 33.876 -17.695 34.301 C-10.852 34.35 -10.852 34.35 -5 31 C-4.505 30.01 -4.505 30.01 -4 29 C0.308 30.566 4.062 32.683 8 35 C4.692 41.433 -0.423 45.22 -7 48 C-14.044 48.852 -21.998 49.325 -28.227 45.449 C-35.082 39.847 -39.818 33.949 -41 25 C-41.273 16.826 -38.945 10.409 -33.625 4.25 C-22.863 -4.975 -12.48 -6.283 0 0 Z " fill="#FBFCFC" transform="translate(782,470)"/>
<path d="M0 0 C0.908 0.474 1.815 0.949 2.75 1.438 C6.221 3.106 9.386 3.853 13.145 4.57 C15 5 15 5 16 6 C17.021 17.918 14.628 27.709 7 37 C0.774 43.735 0.774 43.735 -3.93 44.438 C-10.14 43.553 -14.813 37.912 -18.461 33.055 C-22.261 26.683 -23.295 20.867 -23.125 13.625 C-23.116 12.889 -23.107 12.153 -23.098 11.395 C-23.074 9.596 -23.038 7.798 -23 6 C-22.118 5.713 -21.237 5.425 -20.328 5.129 C-17.426 4.145 -14.591 3.083 -11.75 1.938 C-10.899 1.596 -10.048 1.254 -9.172 0.902 C-5.343 -0.688 -4.138 -1.129 0 0 Z " fill="#F8FAFB" transform="translate(951,598)"/>
<path d="M0 0 C2.84 4.26 2.33 7.93 2.312 12.938 C2.329 13.844 2.345 14.751 2.361 15.686 C2.362 16.561 2.363 17.437 2.363 18.34 C2.366 19.138 2.369 19.936 2.372 20.758 C1.9 23.603 1.006 24.943 -1 27 C-3.846 28.111 -6.591 28.122 -9.625 28.141 C-10.496 28.16 -11.368 28.179 -12.266 28.199 C-14.088 28.233 -15.911 28.251 -17.734 28.254 C-23.135 28.361 -23.135 28.361 -27.578 31.215 C-29.054 34.106 -29.578 36.089 -29.75 39.312 C-29.807 40.196 -29.863 41.079 -29.922 41.988 C-29.948 42.652 -29.973 43.316 -30 44 C-37.203 44.61 -37.203 44.61 -40.938 41.75 C-45.084 36.221 -44.48 29.674 -44 23 C-43.159 19.211 -41.812 16.696 -38.812 14.125 C-35.16 12.664 -31.918 12.332 -28 12 C-28.046 11.325 -28.093 10.649 -28.141 9.953 C-28.436 2.662 -28.436 2.662 -26.312 -0.562 C-18.916 -5.16 -7.301 -4.285 0 0 Z " fill="#3474D4" transform="translate(744,170)"/>
<path d="M0 0 C7.106 -0.602 7.106 -0.602 10.875 1.938 C14.949 7.809 15.509 13.947 14.484 20.922 C13.54 24.974 11.926 28.074 9 31 C6.386 31.227 6.386 31.227 3.117 31.195 C1.951 31.189 0.784 31.182 -0.418 31.176 C-1.641 31.159 -2.865 31.142 -4.125 31.125 C-5.356 31.116 -6.587 31.107 -7.855 31.098 C-10.904 31.074 -13.952 31.041 -17 31 C-17 31.66 -17 32.32 -17 33 C-12.05 33 -7.1 33 -2 33 C-1.391 41.28 -1.391 41.28 -4.062 44.438 C-11.066 48.163 -17.307 48.643 -25 47 C-27.73 45.734 -29.86 44.14 -32 42 C-32.279 38.571 -32.232 35.127 -32.25 31.688 C-32.271 30.724 -32.291 29.76 -32.312 28.768 C-32.318 27.838 -32.323 26.907 -32.328 25.949 C-32.337 25.097 -32.347 24.244 -32.356 23.366 C-31.912 20.418 -31.125 19.082 -29 17 C-26.919 16.502 -26.919 16.502 -24.543 16.496 C-23.677 16.477 -22.812 16.459 -21.92 16.439 C-20.567 16.438 -20.567 16.438 -19.188 16.438 C-10.685 16.443 -10.685 16.443 -3 13 C-0.618 9.03 -0.461 4.532 0 0 Z " fill="#F4D958" transform="translate(748,183)"/>
<path d="M0 0 C5.979 0.261 10.679 3.765 15.062 7.562 C20.607 13.936 26.185 20.749 26.312 29.375 C26.338 30.413 26.364 31.45 26.391 32.52 C25.891 37.154 24.043 39.683 20.625 42.75 C15.62 46.29 12.782 46.87 6.73 46.102 C1.305 45.005 -3.168 43.022 -7.438 39.5 C-11.792 30.972 -10.859 17.646 -8.047 8.742 C-4.665 0.893 -4.665 0.893 0 0 Z " fill="#FBFBFA" transform="translate(409.9375,104.4375)"/>
<path d="M0 0 C10.23 0 20.46 0 31 0 C31.041 4.084 31.082 8.168 31.125 12.375 C31.143 13.662 31.161 14.949 31.18 16.275 C31.185 17.285 31.19 18.295 31.195 19.336 C31.206 20.373 31.216 21.41 31.227 22.478 C31 25 31 25 29 27 C27.68 27 26.36 27 25 27 C25.023 27.626 25.046 28.253 25.07 28.898 C25.097 30.124 25.097 30.124 25.125 31.375 C25.148 32.187 25.171 32.999 25.195 33.836 C25 36 25 36 23 38 C20.375 37.625 20.375 37.625 18 37 C18 33.7 18 30.4 18 27 C16.35 27 14.7 27 13 27 C13.012 27.626 13.023 28.253 13.035 28.898 C13.049 30.124 13.049 30.124 13.062 31.375 C13.074 32.187 13.086 32.999 13.098 33.836 C13 36 13 36 12 38 C10.35 38 8.7 38 7 38 C5.797 35.595 5.899 34.05 5.938 31.375 C5.947 30.558 5.956 29.74 5.965 28.898 C5.976 28.272 5.988 27.645 6 27 C5.196 26.856 4.391 26.711 3.562 26.562 C1 26 1 26 0 25 C-0.087 23.146 -0.107 21.289 -0.098 19.434 C-0.095 18.421 -0.093 17.408 -0.09 16.365 C-0.081 15.069 -0.072 13.773 -0.062 12.438 C-0.042 8.333 -0.021 4.229 0 0 Z " fill="#A6C53B" transform="translate(758,319)"/>
<path d="M0 0 C3.318 1.727 5.043 3.218 6.562 6.676 C7.359 9.348 7.359 9.348 7.914 11.918 C8.409 14.477 8.409 14.477 10.484 17.223 C10.461 19.75 10.461 19.75 9.484 22.223 C7.008 23.664 7.008 23.664 3.859 24.785 C0.223 26.146 -3.118 27.442 -6.391 29.535 C-9.878 31.418 -11.623 31.9 -15.516 31.223 C-20.776 28.255 -24.781 22.534 -27.516 17.223 C-27.905 13.94 -27.901 11.992 -26.414 9.027 C-19.217 -0.088 -11.692 -3.613 0 0 Z " fill="#050505" transform="translate(198.515625,33.77734375)"/>
<path d="M0 0 C0.908 0.474 1.815 0.949 2.75 1.438 C6.221 3.106 9.386 3.853 13.145 4.57 C15 5 15 5 16 6 C17.021 17.918 14.628 27.709 7 37 C0.774 43.735 0.774 43.735 -3.93 44.438 C-10.14 43.553 -14.813 37.912 -18.461 33.055 C-22.261 26.683 -23.295 20.867 -23.125 13.625 C-23.116 12.889 -23.107 12.153 -23.098 11.395 C-23.074 9.596 -23.038 7.798 -23 6 C-22.118 5.713 -21.237 5.425 -20.328 5.129 C-17.426 4.145 -14.591 3.083 -11.75 1.938 C-10.899 1.596 -10.048 1.254 -9.172 0.902 C-5.343 -0.688 -4.138 -1.129 0 0 Z M-10.965 5.906 C-13.882 7.474 -16.796 8.199 -20 9 C-20.645 17.22 -18.948 25.639 -14.281 32.543 C-11.701 35.545 -9.304 37.798 -6 40 C-2.524 40.243 -0.641 39.535 2.027 37.309 C8.659 30.406 12.196 22.947 12.25 13.312 C12.187 11.874 12.112 10.436 12 9 C9.276 8.002 6.551 7.01 3.816 6.039 C1 5 1 5 -2.188 3.5 C-5.955 2.83 -7.721 4.056 -10.965 5.906 Z " fill="#3F7FD4" transform="translate(951,598)"/>
<path d="M0 0 C0.99 0 1.98 0 3 0 C3 0.66 3 1.32 3 2 C3.99 2.33 4.98 2.66 6 3 C6.087 6.25 6.14 9.499 6.188 12.75 C6.213 13.67 6.238 14.591 6.264 15.539 C6.273 16.429 6.283 17.318 6.293 18.234 C6.309 19.051 6.324 19.868 6.341 20.71 C5.91 23.605 5.041 24.92 3 27 C0.119 28.147 -2.48 28.065 -5.547 27.879 C-6.391 27.831 -7.236 27.782 -8.105 27.732 C-8.978 27.676 -9.851 27.62 -10.75 27.562 C-11.638 27.51 -12.526 27.458 -13.441 27.404 C-15.628 27.275 -17.814 27.14 -20 27 C-18.573 24.072 -17.131 21.486 -15 19 C-14.34 19 -13.68 19 -13 19 C-12.773 18.443 -12.546 17.886 -12.312 17.312 C-10.32 13.802 -7.441 11.219 -4.375 8.625 C-2.203 6.058 -1.235 3.116 0 0 Z " fill="#125592" transform="translate(740,170)"/>
<path d="M0 0 C0 3 0 3 0 3 Z M-17 2 C-16.34 2.33 -15.68 2.66 -15 3 C-13.578 2.861 -12.161 2.665 -10.75 2.438 C-6.601 1.939 -3.824 2.088 0 4 C3.078 6.658 5.625 9.124 7 13 C7 14.32 7 15.64 7 17 C-3.23 17 -13.46 17 -24 17 C-22.833 8.833 -22.833 8.833 -19 5 C-18.34 5 -17.68 5 -17 5 C-17 4.01 -17 3.02 -17 2 Z " fill="#A8C53D" transform="translate(782,301)"/>
<path d="M0 0 C-0.99 0.33 -1.98 0.66 -3 1 C-3.33 2.155 -3.66 3.31 -4 4.5 C-4.33 5.655 -4.66 6.81 -5 8 C-5.99 8.33 -6.98 8.66 -8 9 C-8.681 10.661 -9.347 12.328 -10 14 C-13.221 16.147 -13.865 16.22 -17.527 16.055 C-18.402 16.03 -19.277 16.006 -20.178 15.98 C-22.014 15.91 -23.85 15.832 -25.686 15.746 C-31.012 15.478 -31.012 15.478 -35.504 18.008 C-35.998 18.665 -36.491 19.323 -37 20 C-37.66 20 -38.32 20 -39 20 C-39.33 21.32 -39.66 22.64 -40 24 C-40.66 24 -41.32 24 -42 24 C-41.875 21.25 -41.875 21.25 -41 18 C-36.558 13.991 -32.746 13.396 -27 13 C-27.046 12.325 -27.093 11.649 -27.141 10.953 C-27.436 3.662 -27.436 3.662 -25.312 0.438 C-18.463 -3.82 -7.141 -3.174 0 0 Z M0 1 C0.66 1.66 1.32 2.32 2 3 C1.34 3 0.68 3 0 3 C0 2.34 0 1.68 0 1 Z M-43 24 C-42.67 24 -42.34 24 -42 24 C-42 25.65 -42 27.3 -42 29 C-42.33 29 -42.66 29 -43 29 C-43 27.35 -43 25.7 -43 24 Z " fill="#3C77D2" transform="translate(743,169)"/>
<path d="M0 0 C2.104 2.677 2.376 5.701 3 9 C3.33 9.33 3.66 9.66 4 10 C4.099 11.831 4.13 13.666 4.125 15.5 C4.129 17 4.129 17 4.133 18.531 C4 21 4 21 3 22 C0.668 22.099 -1.666 22.13 -4 22.125 C-5.279 22.128 -6.558 22.13 -7.875 22.133 C-11 22 -11 22 -12 21 C-12.099 19.169 -12.13 17.334 -12.125 15.5 C-12.128 14.5 -12.13 13.499 -12.133 12.469 C-12 10 -12 10 -11 9 C-10.876 7.886 -10.753 6.773 -10.625 5.625 C-10 2 -10 2 -8.875 0 C-5.721 -1.682 -3.336 -0.91 0 0 Z " fill="#F4F7F9" transform="translate(951,607)"/>
<path d="M0 0 C2.5 1.375 2.5 1.375 4 3 C4 3.66 4 4.32 4 5 C0.882 6.603 -0.39 7.19 -3.812 6.125 C-4.534 5.754 -5.256 5.382 -6 5 C-5.836 6.929 -5.836 6.929 -5 9 C-2.996 10.46 -2.996 10.46 -0.562 11.562 C2.784 13.201 3.864 13.797 6 17 C5.672 23.124 5.672 23.124 3.562 25.875 C0.039 28.412 -2.701 28.291 -7 28 C-10.539 26.349 -11.811 25.284 -14 22 C-11.688 20.875 -11.688 20.875 -9 20 C-8.01 20.66 -7.02 21.32 -6 22 C-2.875 22.167 -2.875 22.167 0 22 C0 20.68 0 19.36 0 18 C-0.866 17.773 -1.732 17.546 -2.625 17.312 C-6.83 15.677 -8.909 14.312 -12 11 C-12.7 7.013 -12.628 5.02 -10.5 1.562 C-6.989 -0.632 -4.038 -0.703 0 0 Z " fill="#483A30" transform="translate(793,401)"/>
<path d="M0 0 C2.64 0 5.28 0 8 0 C7.716 5.398 7.008 9.21 3.668 13.539 C1.092 15.795 -1.713 16.473 -5.012 17.199 C-7.191 17.847 -7.191 17.847 -8.27 20.082 C-8.511 20.715 -8.752 21.348 -9 22 C-10.896 22.054 -12.791 22.093 -14.688 22.125 C-15.743 22.148 -16.799 22.171 -17.887 22.195 C-21.023 21.999 -23.176 21.331 -26 20 C-24.688 17.062 -24.688 17.062 -23 14 C-20.112 13.037 -18.644 12.972 -15.688 13.125 C-11.391 13.167 -8.644 12.429 -5 10 C-2.158 7.056 -1.149 3.889 0 0 Z " fill="#FDF9F0" transform="translate(931,390)"/>
<path d="M0 0 C2.745 2.553 3.808 4.155 4 8 C2.688 9.5 2.688 9.5 1 11 C-1.147 15.068 -1.464 18.439 -1 23 C-0.118 25.13 0.889 27.102 2.027 29.105 C3.055 31.108 3.706 32.765 4 35 C2.062 37.25 2.062 37.25 0 39 C-4.529 35.855 -6.712 32.928 -9 28 C-8.812 25.875 -8.812 25.875 -8 24 C-6.958 20.496 -6.957 19.131 -8.125 15.562 C-9 12 -9 12 -8 8.938 C-5.637 5.467 -3.067 2.863 0 0 Z " fill="#FDF9EF" transform="translate(902,369)"/>
<path d="M0 0 C3 2 3 2 4 5 C5.951 5.546 5.951 5.546 8.25 5.75 C11.868 6.453 13.732 7.177 16 10.125 C18.368 13.991 18.764 17.52 19 22 C16.36 22 13.72 22 11 22 C10.804 21.397 10.608 20.793 10.406 20.172 C8.807 15.898 7.471 12.717 3.375 10.438 C-0.72 8.709 -4.429 8.811 -8.801 9.25 C-11 9 -11 9 -12.793 7.188 C-14 5 -14 5 -14 2 C-9.505 -0.32 -4.964 -0.632 0 0 Z " fill="#FDF9F0" transform="translate(920,365)"/>
<path d="M0 0 C1.692 1.205 3.317 2.503 4.93 3.812 C0.914 6.903 -3.333 9.435 -7.695 12 C-8.471 12.463 -9.247 12.927 -10.047 13.404 C-11.161 14.061 -11.161 14.061 -12.297 14.73 C-12.973 15.13 -13.649 15.53 -14.346 15.942 C-16.07 16.812 -16.07 16.812 -18.07 16.812 C-18.4 17.473 -18.73 18.132 -19.07 18.812 C-20.647 14.084 -21.394 8.51 -19.129 3.895 C-14.141 -2.438 -7.059 -4.049 0 0 Z " fill="#649CD1" transform="translate(775.0703125,481.1875)"/>
<path d="M0 0 C1.98 0 3.96 0 6 0 C6.146 3.729 6.234 7.457 6.312 11.188 C6.354 12.243 6.396 13.298 6.439 14.385 C6.563 22.216 6.563 22.216 3.699 26.203 C0.144 28.57 -1.805 28.674 -6 28 C-8.938 26.125 -8.938 26.125 -11 24 C-11 23.34 -11 22.68 -11 22 C-9.35 21.34 -7.7 20.68 -6 20 C-5.34 20.66 -4.68 21.32 -4 22 C-3.01 22 -2.02 22 -1 22 C-0.67 14.74 -0.34 7.48 0 0 Z " fill="#4C3B2F" transform="translate(770,401)"/>
<path d="M0 0 C10 0 10 0 14 3 C14.495 6.32 14.308 8.311 12.938 11.375 C10.061 13.788 7.623 13.273 4 13 C4 16.3 4 19.6 4 23 C2.68 23 1.36 23 0 23 C0 15.41 0 7.82 0 0 Z " fill="#E6E8EA" transform="translate(846,618)"/>
<path d="M0 0 C2.5 1.562 2.5 1.562 4 4 C4.715 8.371 4.506 10.256 2 13.938 C-2.151 16.791 -4.03 16.71 -9 16 C-11.5 14.125 -11.5 14.125 -13 12 C-13 11.34 -13 10.68 -13 10 C-10.03 10.495 -10.03 10.495 -7 11 C-7 9.35 -7 7.7 -7 6 C-8.98 6.33 -10.96 6.66 -13 7 C-12.52 2.436 -12.52 2.436 -10.438 0.688 C-6.896 -0.311 -3.645 -0.59 0 0 Z " fill="#F7F8FA" transform="translate(758,547)"/>
<path d="M0 0 C3.06 2.538 3.835 4.117 4.562 8 C4 11 4 11 2.062 13.938 C-1.732 16.493 -3.623 16.278 -8.012 15.688 C-10 15 -10 15 -12 12 C-10.68 11.67 -9.36 11.34 -8 11 C-8 9.35 -8 7.7 -8 6 C-9.65 6 -11.3 6 -13 6 C-12.688 4.125 -12.688 4.125 -12 2 C-7.998 -0.668 -4.704 -0.824 0 0 Z " fill="#FBFCFD" transform="translate(782,546)"/>
<path d="M0 0 C1.32 0 2.64 0 4 0 C4.99 4.62 5.98 9.24 7 14 C9.405 7.108 9.405 7.108 11 0 C12.32 0 13.64 0 15 0 C14.581 5.057 13.98 9.297 12 14 C11.65 16.331 11.314 18.664 11 21 C10 22 10 22 7.438 22.062 C6.633 22.042 5.829 22.021 5 22 C2.556 14.645 0.525 7.75 0 0 Z " fill="#E8EBED" transform="translate(829,618)"/>
<path d="M0 0 C1.91 0.23 1.91 0.23 3.91 2.23 C4.035 4.855 4.035 4.855 3.91 7.23 C2.92 7.23 1.93 7.23 0.91 7.23 C0.25 5.91 -0.41 4.59 -1.09 3.23 C-2.08 3.23 -3.07 3.23 -4.09 3.23 C-5.532 6.115 -5.184 8.648 -5.152 11.855 C-5.143 13.044 -5.134 14.232 -5.125 15.457 C-5.113 16.372 -5.102 17.288 -5.09 18.23 C-3.44 18.56 -1.79 18.89 -0.09 19.23 C0.24 17.91 0.57 16.59 0.91 15.23 C1.9 15.23 2.89 15.23 3.91 15.23 C4.132 17.971 4.258 19.67 2.785 22.043 C-0.003 23.809 -1.857 23.692 -5.09 23.23 C-7.393 21.363 -8.768 19.874 -10.09 17.23 C-11.033 5.963 -11.033 5.963 -7.09 1.23 C-5.195 -0.664 -2.518 0.05 0 0 Z " fill="#EAEDEF" transform="translate(872.08984375,617.76953125)"/>
<path d="M0 0 C1.666 -0.043 3.334 -0.041 5 0 C6.556 1.556 6.13 3.06 6.133 5.219 C6.134 6.068 6.135 6.918 6.137 7.793 C6.133 8.686 6.129 9.58 6.125 10.5 C6.129 11.393 6.133 12.287 6.137 13.207 C6.135 14.057 6.134 14.906 6.133 15.781 C6.132 16.566 6.131 17.35 6.129 18.158 C6 20 6 20 5 21 C3.334 21.041 1.666 21.043 0 21 C-1.641 17.719 -1.143 14.102 -1.125 10.5 C-1.129 9.715 -1.133 8.93 -1.137 8.121 C-1.127 2.253 -1.127 2.253 0 0 Z " fill="#A6C53B" transform="translate(750,319)"/>
<path d="M0 0 C1.207 0.031 1.207 0.031 2.438 0.062 C4.079 3.346 3.622 6.958 3.625 10.562 C3.637 11.348 3.649 12.133 3.662 12.941 C3.667 14.983 3.56 17.024 3.438 19.062 C2.778 19.723 2.117 20.382 1.438 21.062 C-1.188 20.688 -1.188 20.688 -3.562 20.062 C-3.591 16.917 -3.609 13.771 -3.625 10.625 C-3.633 9.727 -3.642 8.829 -3.65 7.904 C-3.654 7.05 -3.657 6.196 -3.66 5.316 C-3.668 4.13 -3.668 4.13 -3.676 2.92 C-3.495 -0.034 -2.97 0.072 0 0 Z " fill="#A6C53B" transform="translate(794.5625,318.9375)"/>
<path d="M0 0 C2 2 2 2 2.223 3.883 C1.726 10.834 -1.091 14.257 -6 19 C-6.928 19.928 -7.856 20.856 -8.812 21.812 C-9.534 22.534 -10.256 23.256 -11 24 C-13.305 26.8 -13.305 26.8 -12.812 29.875 C-11.986 33.052 -10.697 35.222 -9 38 C-9.33 38.66 -9.66 39.32 -10 40 C-17.483 32.823 -17.483 32.823 -17.75 27.812 C-16.82 23.086 -15.708 22.027 -12 19 C-10.432 17.632 -8.87 16.256 -7.312 14.875 C-6.546 14.212 -5.779 13.55 -4.988 12.867 C-1.973 10.035 -0.772 7.849 -0.375 3.812 C-0.251 2.554 -0.128 1.296 0 0 Z " fill="#F37326" transform="translate(781,207)"/>
<path d="M0 0 C0.536 0.227 1.072 0.454 1.625 0.688 C-0.025 1.017 -1.675 1.348 -3.375 1.688 C-3.375 2.348 -3.375 3.007 -3.375 3.688 C3.197 4.524 9.627 4.88 16.25 4.875 C17.204 4.876 18.158 4.876 19.141 4.877 C27.108 4.818 34.779 4.056 42.625 2.688 C41.625 4.688 41.625 4.688 39.165 5.528 C30.977 7.457 23.335 8.119 14.938 8 C13.792 8.003 12.647 8.006 11.467 8.01 C4.626 7.967 -1.732 7.335 -8.375 5.688 C-8.375 4.697 -8.375 3.707 -8.375 2.688 C-2.96 -0.389 -2.96 -0.389 0 0 Z " fill="#3D7ED5" transform="translate(754.375,271.3125)"/>
<path d="M0 0 C0.66 0.66 1.32 1.32 2 2 C1.216 2.99 0.433 3.98 -0.375 5 C-5.206 11.102 -5.334 19.045 -5.625 26.5 C-5.664 27.322 -5.702 28.145 -5.742 28.992 C-5.835 30.994 -5.919 32.997 -6 35 C-6.33 35 -6.66 35 -7 35 C-6.979 34.385 -6.958 33.77 -6.937 33.136 C-6.853 30.341 -6.801 27.546 -6.75 24.75 C-6.716 23.782 -6.683 22.814 -6.648 21.816 C-6.405 16.237 -6.405 16.237 -9.016 11.551 C-9.67 11.039 -10.325 10.527 -11 10 C-11 6.212 -10.837 3.961 -8.312 1.062 C-5.348 -0.299 -3.227 -0.351 0 0 Z " fill="#697F94" transform="translate(742,545)"/>
<path d="M0 0 C-0.494 0.291 -0.987 0.583 -1.496 0.883 C-5.768 3.611 -5.768 3.611 -8.125 8 C-7.978 11.539 -6.886 13.058 -5 16 C-4.547 19.804 -4.811 20.717 -7 24 C-7.66 24 -8.32 24 -9 24 C-9.289 22.886 -9.577 21.773 -9.875 20.625 C-10.692 16.997 -10.692 16.997 -13 15 C-13.8 8.029 -13.8 8.029 -10.812 4.188 C-3.8 -1.267 -3.8 -1.267 0 0 Z " fill="#F37326" transform="translate(787,225)"/>
<path d="M0 0 C1.375 0.017 1.375 0.017 2.777 0.035 C3.696 0.044 4.616 0.053 5.562 0.062 C6.273 0.074 6.983 0.086 7.715 0.098 C8.84 6.848 8.84 6.848 7.715 9.098 C6.069 9.125 4.423 9.144 2.777 9.16 C1.861 9.172 0.944 9.183 0 9.195 C-2.285 9.098 -2.285 9.098 -3.285 8.098 C-3.41 4.598 -3.41 4.598 -3.285 1.098 C-2.285 0.098 -2.285 0.098 0 0 Z " fill="#4D89D3" transform="translate(944.28515625,617.90234375)"/>
<path d="M0 0 C1.279 0.003 2.558 0.005 3.875 0.008 C5.154 0.005 6.433 0.003 7.75 0 C10.875 0.133 10.875 0.133 11.875 1.133 C11.974 2.964 12.005 4.799 12 6.633 C12.004 8.133 12.004 8.133 12.008 9.664 C11.875 12.133 11.875 12.133 10.875 13.133 C8.543 13.232 6.209 13.263 3.875 13.258 C2.596 13.26 1.317 13.263 0 13.266 C-3.125 13.133 -3.125 13.133 -4.125 12.133 C-4.224 10.302 -4.255 8.467 -4.25 6.633 C-4.253 5.633 -4.255 4.632 -4.258 3.602 C-4.059 -0.093 -3.778 0.161 0 0 Z M-2.125 3.133 C-2.292 6.633 -2.292 6.633 -2.125 10.133 C-1.091 11.392 -1.091 11.392 1.16 11.23 C2.077 11.219 2.993 11.207 3.938 11.195 C4.857 11.186 5.776 11.177 6.723 11.168 C7.433 11.156 8.143 11.145 8.875 11.133 C9.917 6.518 9.917 6.518 8.875 2.133 C7.229 2.106 5.583 2.086 3.938 2.07 C2.563 2.053 2.563 2.053 1.16 2.035 C-1.091 1.873 -1.091 1.873 -2.125 3.133 Z " fill="#82B5DC" transform="translate(943.125,615.8671875)"/>
<path d="M0 0 C1.812 1.188 1.812 1.188 3 3 C3.433 5.889 3.425 7.351 1.812 9.812 C-0.649 11.425 -2.111 11.433 -5 11 C-6.812 9.812 -6.812 9.812 -8 8 C-8.433 5.111 -8.425 3.649 -6.812 1.188 C-4.351 -0.425 -2.889 -0.433 0 0 Z " fill="#FDF8ED" transform="translate(932,407)"/>
<path d="M0 0 C2.938 0.875 2.938 0.875 4.938 3.875 C4.613 7.197 4.33 8.483 1.938 10.875 C-1.062 11.125 -1.062 11.125 -4.062 10.875 C-6.062 8.875 -6.062 8.875 -6.375 5.938 C-6.062 2.875 -6.062 2.875 -4.938 0.938 C-3.062 -0.125 -3.062 -0.125 0 0 Z " fill="#FDF8EB" transform="translate(889.0625,383.125)"/>
<path d="M0 0 C-0.66 0.66 -1.32 1.32 -2 2 C8.056 2.101 17.987 2.099 28 1 C25.404 4.316 23.068 4.484 19 5 C14.793 5.21 10.587 5.185 6.375 5.188 C5.243 5.2 4.111 5.212 2.945 5.225 C1.313 5.228 1.313 5.228 -0.352 5.23 C-1.34 5.235 -2.328 5.239 -3.346 5.243 C-6.052 4.995 -7.687 4.384 -10 3 C-6.819 -0.484 -4.568 -1.418 0 0 Z " fill="#3F84D7" transform="translate(761,250)"/>
<path d="M0 0 C1.176 0.082 2.351 0.165 3.562 0.25 C5.562 3.25 5.562 3.25 5.312 6.375 C5.065 7.324 4.817 8.272 4.562 9.25 C1.774 10.644 -0.358 10.507 -3.438 10.25 C-5.438 7.25 -5.438 7.25 -5.125 4.125 C-4.212 0.306 -4.212 0.306 0 0 Z " fill="#FDF9F2" transform="translate(929.4375,359.75)"/>
<path d="M0 0 C0.896 -0.014 1.792 -0.028 2.715 -0.043 C5.062 0.188 5.062 0.188 7.062 2.188 C6.688 4.312 6.688 4.312 6.062 6.188 C5.403 6.188 4.742 6.188 4.062 6.188 C3.732 7.837 3.403 9.487 3.062 11.188 C2.464 11.023 1.866 10.857 1.25 10.688 C-1.051 10.076 -1.051 10.076 -3.938 10.188 C-5.436 6.817 -5.938 4.983 -5.938 1.188 C-4.272 -0.478 -2.278 0.016 0 0 Z " fill="#DFD2B6" transform="translate(765.9375,563.8125)"/>
<path d="M0 0 C0.577 0.165 1.155 0.33 1.75 0.5 C3.956 0.99 5.754 1.074 8.004 0.992 C9.115 0.967 9.115 0.967 10.248 0.941 C11.795 0.897 13.342 0.845 14.889 0.785 C20.565 0.676 20.565 0.676 23.027 2.508 C23.348 3 23.669 3.493 24 4 C15.854 6.414 8.037 7.384 0 4 C0 2.68 0 1.36 0 0 Z " fill="#3E80D5" transform="translate(761,266)"/>
<path d="M0 0 C0.33 0 0.66 0 1 0 C1 12.54 1 25.08 1 38 C-1.146 34.78 -1.248 33.923 -1.23 30.219 C-1.229 29.294 -1.227 28.37 -1.225 27.418 C-1.212 26.455 -1.2 25.492 -1.188 24.5 C-1.187 23.537 -1.186 22.574 -1.186 21.582 C-1.141 14.422 -1.141 14.422 0 11 C-0.784 11.206 -1.567 11.413 -2.375 11.625 C-3.241 11.749 -4.107 11.872 -5 12 C-5.66 11.34 -6.32 10.68 -7 10 C-7 8 -7 8 -6 6 C-2.938 4.75 -2.938 4.75 0 4 C0 2.68 0 1.36 0 0 Z " fill="#808D98" transform="translate(736,585)"/>
<path d="M0 0 C0.66 0.66 1.32 1.32 2 2 C8.626 3.344 15.135 2.984 21.785 2.059 C22.516 2.039 23.247 2.02 24 2 C24.66 2.66 25.32 3.32 26 4 C22.929 5.779 20.692 6.256 17.156 6.266 C16.24 6.268 15.323 6.271 14.379 6.273 C12.954 6.262 12.954 6.262 11.5 6.25 C10.55 6.258 9.6 6.265 8.621 6.273 C7.246 6.27 7.246 6.27 5.844 6.266 C5.01 6.263 4.177 6.261 3.318 6.259 C0.811 5.979 -0.831 5.257 -3 4 C-2.67 3.01 -2.34 2.02 -2 1 C-1.34 0.67 -0.68 0.34 0 0 Z " fill="#4185D6" transform="translate(760,257)"/>
<path d="M0 0 C3.96 0 7.92 0 12 0 C12 0.33 12 0.66 12 1 C8.04 1 4.08 1 0 1 C0 0.67 0 0.34 0 0 Z M0 1 C-0.66 1.66 -1.32 2.32 -2 3 C-1.227 3.619 -1.227 3.619 -0.438 4.25 C0.037 4.827 0.511 5.405 1 6 C0.688 8.188 0.688 8.188 0 10 C-1.65 10.33 -3.3 10.66 -5 11 C-5.33 10.01 -5.66 9.02 -6 8 C-6.66 8 -7.32 8 -8 8 C-8.33 8.66 -8.66 9.32 -9 10 C-8.688 6.625 -8.688 6.625 -8 3 C-4.772 0.848 -3.716 0.799 0 1 Z " fill="#659DD1" transform="translate(725,167)"/>
<path d="M0 0 C-0.33 0.66 -0.66 1.32 -1 2 C-7.147 3.403 -13.355 3.184 -19.625 3.188 C-20.757 3.2 -21.889 3.212 -23.055 3.225 C-24.687 3.228 -24.687 3.228 -26.352 3.23 C-27.34 3.235 -28.328 3.239 -29.346 3.243 C-32.052 2.995 -33.687 2.384 -36 1 C-35.214 0.975 -34.427 0.95 -33.617 0.924 C-30.036 0.808 -26.456 0.685 -22.875 0.562 C-21.638 0.523 -20.4 0.484 -19.125 0.443 C-17.327 0.381 -17.327 0.381 -15.492 0.316 C-14.392 0.28 -13.293 0.243 -12.16 0.205 C-8.975 0.059 -8.975 0.059 -5.782 -0.582 C-3 -1 -3 -1 0 0 Z " fill="#F1F5F8" transform="translate(792,278)"/>
<path d="M0 0 C2.468 1.152 4.048 2.048 6 4 C5.625 6.625 5.625 6.625 5 9 C4.01 9.33 3.02 9.66 2 10 C-0.5 8.188 -0.5 8.188 -3 6 C-3.99 5.34 -4.98 4.68 -6 4 C-4.02 2.68 -2.04 1.36 0 0 Z M-8 5 C-6 6 -6 6 -6 6 Z " fill="#868889" transform="translate(789,631)"/>
<path d="M0 0 C1.605 0.027 1.605 0.027 3.242 0.055 C5.871 0.102 8.497 0.167 11.125 0.25 C11.125 0.58 11.125 0.91 11.125 1.25 C10.51 1.259 9.895 1.269 9.261 1.278 C6.465 1.332 3.67 1.416 0.875 1.5 C-0.093 1.514 -1.061 1.528 -2.059 1.543 C-7.678 1.615 -7.678 1.615 -12.422 4.297 C-12.901 4.941 -13.381 5.586 -13.875 6.25 C-14.535 6.25 -15.195 6.25 -15.875 6.25 C-16.205 7.57 -16.535 8.89 -16.875 10.25 C-17.535 10.25 -18.195 10.25 -18.875 10.25 C-18.701 6.425 -18.388 4.735 -15.562 2.062 C-10.825 -0.885 -5.379 -0.172 0 0 Z M-19.875 10.25 C-19.545 10.25 -19.215 10.25 -18.875 10.25 C-18.875 11.9 -18.875 13.55 -18.875 15.25 C-19.205 15.25 -19.535 15.25 -19.875 15.25 C-19.875 13.6 -19.875 11.95 -19.875 10.25 Z " fill="#67A0D1" transform="translate(719.875,182.75)"/>
<path d="M0 0 C6.049 4.741 6.049 4.741 8 7 C8 9 8 9 6.312 11.188 C4 13 4 13 1.25 12.75 C0.508 12.503 -0.235 12.255 -1 12 C-1.33 11.01 -1.66 10.02 -2 9 C-1.505 8.381 -1.01 7.763 -0.5 7.125 C1.315 5.054 1.315 5.054 0.688 2.25 C0.461 1.508 0.234 0.765 0 0 Z " fill="#8F9392" transform="translate(739,628)"/>
<path d="M0 0 C0.66 0 1.32 0 2 0 C3.32 2.64 4.64 5.28 6 8 C5 9 5 9 3.152 9.098 C1.102 9.065 -0.949 9.033 -3 9 C-3.33 8.01 -3.66 7.02 -4 6 C-2.188 2.812 -2.188 2.812 0 0 Z " fill="#3B7ED6" transform="translate(973,552)"/>
<path d="M0 0 C-0.33 2.97 -0.66 5.94 -1 9 C-4.705 8.074 -6.166 7.328 -9 5 C-7.352 0.057 -4.769 -0.258 0 0 Z " fill="#3F81D5" transform="translate(972,529)"/>
<path d="M0 0 C3.3 0.33 6.6 0.66 10 1 C8.827 4.337 7.811 6.774 5 9 C4.34 9 3.68 9 3 9 C2.01 6.03 1.02 3.06 0 0 Z " fill="#3C7CD5" transform="translate(979,549)"/>
<path d="M0 0 C5.785 3.446 5.785 3.446 6.875 6.25 C6.937 7.116 6.937 7.116 7 8 C3.629 9.498 1.796 10 -2 10 C-1.542 6.531 -1.109 3.326 0 0 Z " fill="#3E7FD5" transform="translate(959,536)"/>
<path d="M0 0 C-0.557 3.344 -1.352 6.033 -3 9 C-6.161 7.63 -6.993 7.011 -9 4 C-9 3.01 -9 2.02 -9 1 C-5.927 0.089 -3.199 -0.089 0 0 Z " fill="#3A7CD5" transform="translate(968,549)"/>
<path d="M0 0 C2.354 2.551 2.983 3.71 3.188 7.25 C3.126 8.158 3.064 9.065 3 10 C-1.455 9.01 -1.455 9.01 -6 8 C-4.218 4.437 -2.832 2.644 0 0 Z " fill="#3B7BD5" transform="translate(987,536)"/>
<path d="M0 0 C3.735 0.498 5.812 0.875 9 3 C9 3.66 9 4.32 9 5 C6.188 7.188 6.188 7.188 3 9 C2.01 8.67 1.02 8.34 0 8 C0 5.36 0 2.72 0 0 Z " fill="#3C7BD4" transform="translate(976,529)"/>
<path d="M0 0 C2.938 1.125 2.938 1.125 3.938 2.125 C4.312 5.438 4.312 5.438 3.938 9.125 C1.625 11.625 1.625 11.625 -1.062 13.125 C-2.053 12.795 -3.043 12.465 -4.062 12.125 C-3.382 11.403 -2.701 10.681 -2 9.938 C0.192 7.325 0.192 7.325 -0.062 4.438 C-0.87 1.976 -0.87 1.976 -3.125 0.812 C-3.764 0.586 -4.404 0.359 -5.062 0.125 C-3.062 -0.875 -3.062 -0.875 0 0 Z M-6.062 13.125 C-4.062 14.125 -4.062 14.125 -4.062 14.125 Z " fill="#4284D5" transform="translate(797.0625,247.875)"/>
<path d="M0 0 C2.239 2.823 2 4.279 2 8 C1.01 8 0.02 8 -1 8 C-1.66 6.02 -2.32 4.04 -3 2 C-4.32 2 -5.64 2 -7 2 C-7.33 3.98 -7.66 5.96 -8 8 C-8.66 8 -9.32 8 -10 8 C-10.357 2.65 -10.357 2.65 -8.938 0.062 C-5.75 -1.685 -3.397 -0.927 0 0 Z " fill="#4989D4" transform="translate(951,607)"/>
<path d="M0 0 C0.536 0.227 1.072 0.454 1.625 0.688 C-0.025 1.017 -1.675 1.348 -3.375 1.688 C-3.375 2.348 -3.375 3.007 -3.375 3.688 C-0.405 4.017 2.565 4.348 5.625 4.688 C5.295 5.678 4.965 6.668 4.625 7.688 C0.335 7.027 -3.955 6.368 -8.375 5.688 C-8.375 4.697 -8.375 3.707 -8.375 2.688 C-2.96 -0.389 -2.96 -0.389 0 0 Z " fill="#4585D5" transform="translate(754.375,271.3125)"/>
<path d="M0 0 C0.33 0 0.66 0 1 0 C1 2.97 1 5.94 1 9 C2.65 9.33 4.3 9.66 6 10 C7.125 13.75 7.125 13.75 6 16 C3.03 15.505 3.03 15.505 0 15 C0 10.05 0 5.1 0 0 Z " fill="#B1A998" transform="translate(797,580)"/>
<path d="M0 0 C0.99 0 1.98 0 3 0 C3 0.99 3 1.98 3 3 C3.99 3 4.98 3 6 3 C6 3.99 6 4.98 6 6 C5.01 6 4.02 6 3 6 C3 6.99 3 7.98 3 9 C2.01 9 1.02 9 0 9 C0 8.01 0 7.02 0 6 C-0.99 6 -1.98 6 -3 6 C-3 5.01 -3 4.02 -3 3 C-2.01 3 -1.02 3 0 3 C0 2.01 0 1.02 0 0 Z " fill="#E6EBF0" transform="translate(788,488)"/>
<path d="M0 0 C1.666 -0.043 3.334 -0.041 5 0 C6 1 6 1 6.188 3.438 C6 6 6 6 4 8 C2.68 8 1.36 8 0 8 C0 5.36 0 2.72 0 0 Z " fill="#2E2E64" transform="translate(850,621)"/>
<path d="M0 0 C-1 3 -1 3 -3.062 4.188 C-3.702 4.456 -4.341 4.724 -5 5 C-5 6.98 -5 8.96 -5 11 C-5.99 10.67 -6.98 10.34 -8 10 C-8.783 7.183 -9.195 5.54 -8.188 2.75 C-5.987 -0.493 -3.653 -0.096 0 0 Z " fill="#6CD1E4" transform="translate(741,546)"/>
<path d="M0 0 C0.99 0 1.98 0 3 0 C3 0.99 3 1.98 3 3 C3.66 3 4.32 3 5 3 C5 3.99 5 4.98 5 6 C4.01 6 3.02 6 2 6 C2 6.66 2 7.32 2 8 C1.34 8 0.68 8 0 8 C0 7.34 0 6.68 0 6 C-0.99 6 -1.98 6 -3 6 C-3 5.01 -3 4.02 -3 3 C-2.01 3 -1.02 3 0 3 C0 2.01 0 1.02 0 0 Z " fill="#F3F5F6" transform="translate(799,488)"/>
<path d="M0 0 C0.66 1.32 1.32 2.64 2 4 C-0.709 5.354 -3.009 5.065 -6 5 C-6.33 3.68 -6.66 2.36 -7 1 C-4.537 -0.231 -2.72 -0.072 0 0 Z " fill="#121315" transform="translate(769,560)"/>
<path d="M0 0 C1.454 0.031 1.454 0.031 2.938 0.062 C1.947 1.548 1.947 1.548 0.938 3.062 C1.246 5.215 1.246 5.215 1.938 7.062 C0.271 7.105 -1.396 7.103 -3.062 7.062 C-4.062 6.062 -4.062 6.062 -4.188 3.562 C-4.003 -0.128 -3.763 0.077 0 0 Z " fill="#3776D4" transform="translate(945.0625,618.9375)"/>
<path d="M0 0 C0.66 0 1.32 0 2 0 C2 2.64 2 5.28 2 8 C0.35 8 -1.3 8 -3 8 C-3 3.775 -2.744 2.955 0 0 Z " fill="#115491" transform="translate(711,206)"/>
<path d="M0 0 C-0.66 0.66 -1.32 1.32 -2 2 C-2.33 2.99 -2.66 3.98 -3 5 C-5.97 4.505 -5.97 4.505 -9 4 C-9 3.01 -9 2.02 -9 1 C-5.574 -0.618 -3.619 -1.341 0 0 Z " fill="#478CD6" transform="translate(761,250)"/>
<path d="M0 0 C1.32 0.66 2.64 1.32 4 2 C3.67 3.65 3.34 5.3 3 7 C1.68 6.34 0.36 5.68 -1 5 C-1 1 -1 1 0 0 Z " fill="#F0D7A8" transform="translate(789,632)"/>
<path d="M0 0 C1.65 0.33 3.3 0.66 5 1 C5 1.66 5 2.32 5 3 C2.439 5.296 1.52 6 -2 6 C-1.34 4.02 -0.68 2.04 0 0 Z " fill="#F3D9A8" transform="translate(742,634)"/>
<path d="M0 0 C0.33 0 0.66 0 1 0 C1 3.3 1 6.6 1 10 C0 8 -1 6 -2 4 C-1.34 4 -0.68 4 0 4 C0 2.68 0 1.36 0 0 Z M-5 5 C-4.01 5.33 -3.02 5.66 -2 6 C-2.66 6.66 -3.32 7.32 -4 8 C-4.66 8.99 -5.32 9.98 -6 11 C-6.625 9.125 -6.625 9.125 -7 7 C-6.34 6.34 -5.68 5.68 -5 5 Z " fill="#79797B" transform="translate(736,585)"/>
<path d="M0 0 C1.98 0.495 1.98 0.495 4 1 C4 2.65 4 4.3 4 6 C2.35 5.67 0.7 5.34 -1 5 C-0.67 3.35 -0.34 1.7 0 0 Z " fill="#292726" transform="translate(747,552)"/>
<path d="M0 0 C0.99 0 1.98 0 3 0 C3.125 2.375 3.125 2.375 3 5 C1 7 1 7 -1.625 7.125 C-2.409 7.084 -3.192 7.043 -4 7 C-3.288 6.381 -3.288 6.381 -2.562 5.75 C-0.837 3.818 -0.434 2.518 0 0 Z " fill="#F3F7F9" transform="translate(873,633)"/>
<path d="M0 0 C1.98 0.495 1.98 0.495 4 1 C4 2.32 4 3.64 4 5 C3.01 5.33 2.02 5.66 1 6 C0.34 5.67 -0.32 5.34 -1 5 C-0.67 3.35 -0.34 1.7 0 0 Z " fill="#F3F6F9" transform="translate(721,172)"/>
<path d="M0 0 C0.99 0.33 1.98 0.66 3 1 C3.33 3.31 3.66 5.62 4 8 C3.01 8 2.02 8 1 8 C0.34 5.69 -0.32 3.38 -1 1 C-0.67 0.67 -0.34 0.34 0 0 Z " fill="#4D88D2" transform="translate(949,607)"/>
<path d="M0 0 C1.98 0.495 1.98 0.495 4 1 C4 2.32 4 3.64 4 5 C2.35 4.67 0.7 4.34 -1 4 C-0.67 2.68 -0.34 1.36 0 0 Z " fill="#407ED3" transform="translate(972,542)"/>
<path d="M0 0 C-0.33 0.66 -0.66 1.32 -1 2 C-3.066 2.414 -3.066 2.414 -5.562 2.625 C-6.389 2.7 -7.215 2.775 -8.066 2.852 C-9.024 2.925 -9.024 2.925 -10 3 C-9.67 2.01 -9.34 1.02 -9 0 C-3.375 -1.125 -3.375 -1.125 0 0 Z " fill="#EEF3F6" transform="translate(792,278)"/>
<path d="M0 0 C2.475 0.495 2.475 0.495 5 1 C4.67 2.32 4.34 3.64 4 5 C2.68 5 1.36 5 0 5 C0 3.35 0 1.7 0 0 Z M3 2 C4 4 4 4 4 4 Z " fill="#120F0E" transform="translate(770,552)"/>
<path d="M0 0 C1.98 0.495 1.98 0.495 4 1 C3.67 2.32 3.34 3.64 3 5 C1.68 4.67 0.36 4.34 -1 4 C-0.67 2.68 -0.34 1.36 0 0 Z " fill="#FFFFFF" transform="translate(738,220)"/>
<path d="M0 0 C0.66 0.33 1.32 0.66 2 1 C1.34 2.32 0.68 3.64 0 5 C-0.99 4.67 -1.98 4.34 -3 4 C-2.67 3.01 -2.34 2.02 -2 1 C-1.34 0.67 -0.68 0.34 0 0 Z " fill="#F6DBA8" transform="translate(734,590)"/>
<path d="M0 0 C1.32 0 2.64 0 4 0 C3.34 1.98 2.68 3.96 2 6 C1.34 5.34 0.68 4.68 0 4 C0 2.68 0 1.36 0 0 Z " fill="#181D27" transform="translate(736,550)"/>
<path d="M0 0 C0 1.65 0 3.3 0 5 C-0.99 5 -1.98 5 -3 5 C-3 3.68 -3 2.36 -3 1 C-1 0 -1 0 0 0 Z " fill="#F1F5F8" transform="translate(765,569)"/>
<path d="M0 0 C1.65 0 3.3 0 5 0 C5 0.99 5 1.98 5 3 C3.35 2.67 1.7 2.34 0 2 C0 1.34 0 0.68 0 0 Z " fill="#FBFCFD" transform="translate(996,549)"/>
<path d="M0 0 C0.66 0 1.32 0 2 0 C1.67 1.65 1.34 3.3 1 5 C0.34 3.68 -0.32 2.36 -1 1 C-0.67 0.67 -0.34 0.34 0 0 Z " fill="#E0E9EF" transform="translate(946,620)"/>
<path d="M0 0 C0.66 0.33 1.32 0.66 2 1 C2 1.66 2 2.32 2 3 C1.01 2.67 0.02 2.34 -1 2 C-0.67 1.34 -0.34 0.68 0 0 Z " fill="#F4EDDE" transform="translate(780,309)"/>
</svg>